<svg width="152" height="123" viewBox="0 0 152 123" fill="none" xmlns="http://www.w3.org/2000/svg">
<g clip-path="url(#clip0_970_2)">
<path d="M76.0036 120C34.032 120 0.0072937 118.551 0.0072937 116.763C0.0072937 114.975 34.032 113.526 76.0036 113.526C117.975 113.526 152 114.975 152 116.763C152 118.551 117.975 120 76.0036 120Z" fill="#A7DDE3"/>
<path d="M113.943 117.539C103.871 117.539 95.7066 109.268 95.7066 99.0656C95.7066 88.8628 103.871 80.5918 113.943 80.5918C124.015 80.5918 132.18 88.8628 132.18 99.0656C132.18 109.268 124.015 117.539 113.943 117.539Z" fill="#14345A"/>
<path d="M113.943 111.044C107.413 111.044 102.119 105.681 102.119 99.0653C102.119 92.4498 107.413 87.0869 113.943 87.0869C120.474 87.0869 125.768 92.4498 125.768 99.0653C125.768 105.681 120.474 111.044 113.943 111.044Z" fill="#3AC1B0"/>
<path d="M49.6187 98.4233C47.547 96.1547 46.854 92.8146 45.7671 89.8218C43.6371 83.9472 39.6614 78.9297 34.6937 75.8261C33.3661 74.9985 31.9655 74.2965 30.7619 73.2693C29.5583 72.2348 28.537 70.8012 28.3546 69.1238C28.2087 67.8158 28.5881 66.5079 28.9601 65.2517C31.3819 57.0567 33.8038 48.8543 36.7144 40.8515C37.4657 38.7824 38.5016 36.4769 40.4566 35.9448C41.755 35.5901 43.1045 36.1591 44.3446 36.7281C48.1598 38.472 52.1938 40.5485 54.28 44.5019C55.7682 47.3247 56.0454 50.7313 55.9505 53.9974C55.739 61.1357 53.9372 68.0893 53.1421 75.1684C52.347 82.255 52.6898 89.9179 56.3153 95.8147C57.1177 97.1153 58.0587 98.305 58.9341 99.5465C56.0818 101.534 52.0187 101.054 49.6187 98.4233Z" fill="#14345A"/>
<path d="M85.8004 61.4826C82.7074 61.8447 79.257 62.8275 78.1555 65.1404C77.2364 67.069 78.2941 69.1825 79.0455 71.1555C80.5628 75.1532 80.7889 79.4539 79.702 83.5403C78.9215 86.4665 77.2874 89.4667 74.0632 91.0407C71.2109 92.4299 67.6657 92.4521 64.3174 92.4373C59.5029 92.4151 54.2726 92.2673 50.5669 89.8436C48.9766 93.5827 52.0113 97.7651 56.2714 99.8194C60.5315 101.874 65.7034 102.28 70.6784 102.568C88.835 103.61 107.079 103.677 125.265 103.049C128.241 102.945 131.487 102.738 133.676 101.142C136.367 99.1839 136.477 95.9177 136.397 93.0358C136.214 86.4074 135.893 79.3948 131.327 73.8305C128.511 70.4017 124.258 67.808 119.604 66.0197C114.957 64.2241 109.902 63.1822 104.825 62.3841C98.5661 61.3791 92.1176 60.7362 85.8004 61.4826Z" fill="#F4424F"/>
<path d="M69.6575 100.587C65.9591 100.381 62.1804 100.151 58.7446 98.7401C55.3088 97.3287 52.2232 94.4837 51.5083 90.8037C51.377 90.1091 51.4499 89.1928 52.1137 88.9785C53.3538 92.0673 56.5781 93.9295 59.8024 94.6093C63.0266 95.2818 66.3603 95.001 69.6575 95.0897C72.9474 95.1783 76.3978 95.703 79.0166 97.7277C79.4762 98.0824 79.9212 98.4962 80.14 99.0357C80.3662 99.5751 80.3224 100.262 79.9066 100.676C79.4616 101.112 78.7613 101.105 78.1413 101.075C75.3182 100.905 72.4879 100.75 69.6575 100.587Z" fill="#14345A"/>
<path d="M115.176 68.1846C106.605 65.0145 97.3115 64.0834 88.2077 64.8224C86.2308 64.985 83.9257 65.4579 83.1087 67.2831C82.5616 68.5098 82.8972 69.9212 83.1598 71.2365C84.429 77.5767 83.7871 84.2938 81.3288 90.2645C80.716 91.7572 79.9866 93.2351 79.7385 94.8313C79.4905 96.4274 79.8188 98.2378 81.0297 99.2945C82.2698 100.388 84.0789 100.433 85.7202 100.418C96.1444 100.351 106.634 100.277 116.905 98.4595C120.027 97.9127 123.383 97.0333 125.294 94.4766C127.161 91.9715 127.125 88.5502 126.899 85.4244C126.593 81.0941 125.972 76.5052 123.208 73.1873C121.158 70.734 118.167 69.2931 115.176 68.1846Z" fill="#D62D41"/>
<path d="M34.6352 22.5476C33.5629 25.0601 33.5629 27.8903 33.6139 30.6318C34.1246 30.6761 34.6279 30.7278 35.1385 30.7722C35.8388 27.2326 36.882 23.7521 38.2388 20.4121C37.5604 20.013 36.6558 20.1682 36.0139 20.6338C35.3646 21.0993 34.9489 21.8087 34.6352 22.5476Z" fill="white"/>
<path d="M34.0152 32.4048C33.986 28.9909 34.7009 25.5695 36.1015 22.4585C36.8309 20.8402 38.0127 19.1258 39.7707 19.0076C40.6971 18.9485 41.5798 19.3623 42.4041 19.7835C44.0308 20.6185 45.6429 21.5718 46.883 22.9241C48.9693 25.2074 49.7863 28.3628 50.5231 31.3777C50.6617 31.9541 50.8003 32.5896 50.5377 33.1216C50.1948 33.8162 49.3997 34.001 48.59 34.001C48.2763 35.0207 47.9627 36.0479 47.649 37.0676C47.5979 37.2302 47.5396 37.4001 47.3937 37.4888C47.2478 37.5701 47.0654 37.5332 46.8976 37.4888C45.6721 37.1711 44.4393 36.8459 43.2138 36.5282C42.6302 36.373 42.0175 36.2104 41.5871 35.7744C41.2296 35.4124 41.0546 34.9099 40.8503 34.4369C40.6461 33.9714 40.4053 33.5206 40.1354 33.092C38.1002 32.863 36.0577 32.6339 34.0152 32.4048Z" fill="#F4424F"/>
<path d="M43.914 25.5772C45.1906 25.3703 46.5839 25.6215 47.5468 26.4861C48.5097 27.3581 48.8963 28.9099 48.2325 30.0331C47.5833 31.1193 46.117 31.511 44.9207 31.1267C43.7317 30.7351 42.8198 29.7079 42.3019 28.5552C42.032 27.9566 41.8642 27.2472 42.1414 26.656C42.4478 25.991 43.2065 25.688 43.914 25.5772Z" fill="#14345A"/>
<path d="M24.4009 117.539C14.329 117.539 6.16411 109.268 6.16411 99.0656C6.16411 88.8628 14.329 80.5918 24.4009 80.5918C34.4728 80.5918 42.6377 88.8628 42.6377 99.0656C42.6377 109.268 34.4728 117.539 24.4009 117.539Z" fill="#14345A"/>
<path d="M24.4009 111.044C17.8702 111.044 12.5761 105.681 12.5761 99.0653C12.5761 92.4498 17.8702 87.0869 24.4009 87.0869C30.9315 87.0869 36.2256 92.4498 36.2256 99.0653C36.2256 105.681 30.9315 111.044 24.4009 111.044Z" fill="#3AC1B0"/>
<path d="M31.2799 104.519C29.0988 106.485 25.6775 105.945 23.015 104.741C21.4393 104.024 19.8418 102.989 19.2655 101.341C18.7549 99.8784 19.1707 98.2748 19.6083 96.7895C21.5123 90.3533 23.8466 84.0426 26.5967 77.9315C27.173 76.6457 27.9389 75.2195 29.2884 74.8722C29.7407 74.754 30.2222 74.7688 30.6453 74.584C31.0756 74.3993 31.4331 73.8968 31.2288 73.4756C33.585 74.1924 35.8464 75.2269 37.9327 76.557C38.684 77.0373 39.45 77.6063 39.7345 78.4561C40.019 79.3059 39.7564 80.2296 39.4864 81.0868C37.5096 87.427 35.54 93.7746 33.5631 100.115C33.0744 101.718 32.52 103.403 31.2799 104.519Z" fill="#14345A"/>
<path d="M26.2101 103.64C28.2308 103.64 29.8721 101.977 29.8721 99.9302C29.8721 97.8833 28.2308 96.2207 26.2101 96.2207C24.1895 96.2207 22.5482 97.8833 22.5482 99.9302C22.5482 101.977 24.1968 103.64 26.2101 103.64ZM26.2101 96.7749C27.9244 96.7749 29.325 98.1863 29.325 99.9302C29.325 101.667 27.9317 103.086 26.2101 103.086C24.4959 103.086 23.0953 101.674 23.0953 99.9302C23.1026 98.1937 24.4959 96.7749 26.2101 96.7749Z" fill="white"/>
<path d="M108.013 68.3845C112.981 67.4091 118.24 68.8796 122.42 71.7615C126.6 74.6434 129.78 78.8554 132.086 83.4222C134.391 87.9889 135.879 92.9251 137.199 97.8761C137.418 98.7111 137.629 99.6348 137.243 100.403C136.922 101.039 136.258 101.416 135.623 101.733C131.137 103.928 126.097 104.652 121.129 105.022C110.829 105.783 100.434 105.11 90.316 103.027C89.2072 102.798 88.0765 102.546 87.1355 101.911C86.3695 101.401 85.7713 100.669 85.268 99.8934C83.0212 96.4277 82.5471 91.9718 83.4589 87.9298C84.3635 83.8877 86.5519 80.2299 89.2363 77.1041C91.8989 74.0005 95.1232 71.3255 98.8581 69.7072C102.593 68.0889 106.86 67.579 110.763 68.717" fill="#14345A"/>
<path d="M106.35 67.6605C106.35 68.0817 106.686 68.4217 107.101 68.4217H144.1C144.516 68.4217 144.852 68.0817 144.852 67.6605C144.852 67.2393 144.516 66.8994 144.1 66.8994H107.101C106.686 66.8994 106.35 67.2393 106.35 67.6605Z" fill="#14345A"/>
<path d="M1.59793 98.9987C2.26175 93.4122 3.87388 89.1928 7.39723 84.9365C8.61545 83.4659 10.0306 81.759 12.6494 80.0076C19.2803 75.5665 28.0121 74.7463 34.7962 78.877C41.4781 82.9339 45.7164 90.8776 46.0957 99.0061H1.59793V98.9987Z" fill="#F4424F"/>
<path d="M43.8491 97.905C43.3531 92.4958 40.0267 87.4414 35.2924 84.8994C30.5581 82.3574 24.5546 82.4091 19.8641 85.0324C15.1736 87.6557 11.9274 92.7693 11.5262 98.1858L43.8491 97.905Z" fill="#D62D41"/>
<path d="M9.15548 91.8682C9.25031 91.8682 9.34514 91.8165 9.39621 91.7204C12.6496 85.6832 18.2885 81.4564 24.4744 80.3997C31.0688 79.2765 37.9258 82.0402 41.5221 87.2646C41.6097 87.3902 41.7775 87.4197 41.9015 87.3311C42.0255 87.2424 42.0547 87.0724 41.9671 86.9468C38.2468 81.5451 31.1855 78.6927 24.3796 79.8529C18.0259 80.9317 12.2484 85.2694 8.91476 91.4544C8.84182 91.5874 8.89287 91.7574 9.02418 91.8313C9.06065 91.8535 9.11171 91.8682 9.15548 91.8682Z" fill="white"/>
<path d="M77.6522 64.4751C76.9884 63.7805 77.4188 62.6277 77.9659 61.837C79.9866 58.9403 83.1233 56.9969 86.4424 55.8663C89.7615 54.7357 93.2775 54.3588 96.7644 54.0706C98.413 53.9376 100.178 53.8416 101.594 54.7135C103.6 55.9476 104.132 58.6004 104.475 60.9503C104.716 62.5981 104.752 64.682 103.293 65.4505C102.695 65.7683 101.98 65.7461 101.302 65.7239C93.9559 65.4653 86.6029 65.214 79.2571 64.9554C78.6808 64.9406 78.0462 64.8889 77.6522 64.4751Z" fill="#14345A"/>
<path d="M84.5018 63.3886C84.5894 63.3886 84.6769 63.3442 84.728 63.2629C88.3097 57.8686 95.422 55.1123 101.637 56.7084C101.783 56.7454 101.929 56.6567 101.973 56.5089C102.009 56.3611 101.922 56.2133 101.776 56.169C95.3418 54.5137 87.9814 57.3735 84.2757 62.9526C84.1882 63.0782 84.2246 63.2482 84.3487 63.3368C84.3924 63.3738 84.4508 63.3886 84.5018 63.3886Z" fill="white"/>
<path d="M51.0778 57.9062C51.6249 57.2707 52.617 57.4259 53.4267 57.6402C54.6814 57.9653 56.1184 58.4604 56.5415 59.7018C56.7239 60.2487 56.6728 60.8398 56.6145 61.4162C56.2789 64.6972 55.9506 67.9707 55.6151 71.2517C55.4984 72.3897 54.4771 73.2099 53.3537 73.0547L50.9902 72.7222C50.465 72.6483 49.9033 72.5596 49.5313 72.1754C49.028 71.6507 49.0936 70.8083 49.1884 70.0841C49.6845 66.4411 50.1732 62.7981 50.6693 59.155C50.7203 58.6969 50.786 58.2387 51.0778 57.9062Z" fill="white"/>
<path d="M55.3379 56.3545L55.0242 58.7044L52.7045 58.1649L53.4559 55.9111L55.3379 56.3545Z" fill="white"/>
<path d="M56.6002 57.0194C55.3091 56.7238 53.9887 56.5465 52.6684 56.4726C52.7413 55.6449 52.8143 54.8173 52.8945 53.9971C54.2586 54.1818 55.63 54.3592 56.9941 54.5439C56.9577 55.3789 56.8191 56.2139 56.6002 57.0194Z" fill="#F4424F"/>
<path d="M58.6426 56.65C58.7082 56.8865 58.6936 57.1673 58.5331 57.352C58.3726 57.5368 58.0444 57.5737 57.8912 57.3742C57.9642 57.0121 57.7526 56.6426 57.4535 56.4283C57.1544 56.2214 56.7824 56.1475 56.4177 56.118C56.0529 56.0884 55.6882 56.1032 55.3308 56.0293C55.5204 55.7559 55.608 55.4233 55.5861 55.0908C56.1478 55.2977 56.7605 55.3347 57.3368 55.512C57.9058 55.6968 58.4821 56.0662 58.6426 56.65Z" fill="#F4424F"/>
<path d="M48.2766 66.0347C48.3861 63.8252 48.6633 61.6231 49.1009 59.458C50.3629 62.6059 53.4486 64.9263 56.7969 65.2218C56.7312 65.8943 56.6656 66.5667 56.6072 67.2392C53.8498 66.6628 51.0705 66.2638 48.2766 66.0347Z" fill="#14345A"/>
<path d="M143.298 30.8092C145.121 32.0358 146.952 33.4251 147.922 35.4128C149.031 37.674 148.842 40.3416 148.586 42.8541C148.01 48.5736 147.229 54.2709 146.259 59.9313C145.865 62.222 145.311 64.7271 143.465 66.1015C141.89 67.2765 139.781 67.3208 137.827 67.3208C128.737 67.306 119.648 67.2912 110.559 67.2765C108.961 67.2765 107.138 67.173 106.124 65.9168C105.35 64.9635 105.292 63.6334 105.27 62.4068C105.044 50.4727 104.818 38.5386 104.584 26.6045C104.555 25.171 104.555 23.6413 105.307 22.4294C106 21.3062 107.232 20.6412 108.473 20.2126C113.017 18.6312 118.014 19.5771 122.61 20.9663C129.941 23.1832 136.937 26.5085 143.298 30.8092Z" fill="#F4424F"/>
<path d="M108.079 43.8001C120.523 43.7927 132.968 45.1598 145.128 47.8644C145.216 44.2435 145.296 40.6152 145.384 36.9944C133.814 30.7502 120.976 26.9225 107.911 25.8066C107.969 31.8069 108.028 37.7998 108.079 43.8001Z" fill="#F2D525"/>
<path d="M125.761 61.6903C121.97 61.6903 118.897 58.5771 118.897 54.7367C118.897 50.8964 121.97 47.7832 125.761 47.7832C129.552 47.7832 132.625 50.8964 132.625 54.7367C132.625 58.5771 129.552 61.6903 125.761 61.6903Z" fill="#F2D525"/>
<path d="M117.839 21.9414C124.528 23.1459 130.926 25.6288 137.17 28.3334C140.62 29.8334 144.246 31.5774 146.215 34.814C144.202 32.6415 141.058 30.9123 138.33 29.8039C133.559 27.8604 129.802 26.353 124.907 24.7199C120.064 23.109 114.184 21.8601 109.202 22.9538C111.631 21.2025 114.906 21.4094 117.839 21.9414Z" fill="white"/>
<path d="M110.457 71.4363C115.424 70.4608 120.684 71.9313 124.864 74.8133C129.044 77.6952 132.224 81.9072 134.529 86.4665C136.834 91.0333 138.323 95.9695 139.643 100.92C139.862 101.755 140.073 102.679 139.687 103.448C139.366 104.083 138.702 104.46 138.067 104.778C133.581 106.972 128.54 107.697 123.573 108.066C113.273 108.827 102.878 108.155 92.7598 106.071C91.651 105.842 90.5203 105.591 89.5793 104.955C88.8134 104.445 88.2152 103.714 87.7119 102.938C85.4651 99.4721 84.9909 95.0162 85.9028 90.9742C86.8073 86.9321 88.9957 83.2743 91.6802 80.1485C94.3428 77.0449 97.567 74.3699 101.302 72.7516C105.037 71.1333 109.304 70.6234 113.207 71.7614" fill="#F4424F"/>
<path d="M94.5249 78.501C94.8021 78.501 95.0866 78.501 95.3638 78.5084C95.2617 79.7646 96.6987 80.5109 97.8878 80.8952C110.362 84.9299 123.011 88.3586 135.66 91.7947C136.601 95.2161 137.535 98.6374 138.476 102.059C122.559 101.482 107.05 97.0856 91.7238 92.711C90.3451 92.3194 88.7621 91.7208 88.3682 90.3316C88.0472 89.1862 88.6891 88.0187 89.3092 87.0137C91.0453 84.1761 92.7888 81.3386 94.5249 78.501Z" fill="#F2D525"/>
<path d="M133.916 87.7152C133.953 87.7152 133.982 87.7078 134.019 87.6931C134.157 87.6339 134.223 87.4714 134.172 87.331C131.706 81.1681 126.571 76.1063 120.421 73.7786C114.272 71.4583 107.116 71.8721 101.265 74.8944C101.134 74.9609 101.076 75.1309 101.149 75.2639C101.214 75.3969 101.382 75.456 101.513 75.3821C107.225 72.4263 114.221 72.0199 120.224 74.2885C126.228 76.557 131.254 81.508 133.661 87.5305C133.712 87.6487 133.814 87.7152 133.916 87.7152Z" fill="white"/>
<path d="M93.482 103.5C93.5185 103.766 93.7665 104.032 94.0364 104.091C97.2753 104.793 98.8728 104.963 101.929 104.919C102.185 104.919 102.316 104.689 102.214 104.416C102.112 104.143 101.834 103.928 101.579 103.928C98.6029 103.965 97.0491 103.803 93.8978 103.123C93.6352 103.071 93.4455 103.234 93.482 103.5Z" fill="#14345A"/>
<path d="M93.1246 101.342C93.1611 101.608 93.4091 101.874 93.679 101.933C96.9178 102.635 98.5154 102.805 101.572 102.761C101.827 102.761 101.958 102.531 101.856 102.258C101.754 101.985 101.477 101.77 101.222 101.77C98.2455 101.807 96.6917 101.645 93.5404 100.965C93.2778 100.906 93.0954 101.076 93.1246 101.342Z" fill="#14345A"/>
<path d="M92.7745 99.1765C92.811 99.4425 93.059 99.7085 93.3289 99.7676C96.5677 100.47 98.1653 100.64 101.222 100.595C101.477 100.595 101.608 100.366 101.506 100.093C101.404 99.8194 101.127 99.6051 100.872 99.6051C97.8954 99.642 96.3416 99.4794 93.1903 98.7996C92.9277 98.7479 92.738 98.9105 92.7745 99.1765Z" fill="#14345A"/>
<path d="M45.0814 88.8612C42.7179 84.2723 39.2602 80.2819 35.1898 77.1488C32.3302 74.9467 29.0039 72.9737 27.523 69.6558C25.7358 65.6433 27.2094 60.9953 28.6829 56.8571C30.2804 52.4013 31.878 47.938 33.4682 43.4821C34.1102 41.6791 34.9709 39.9721 36.0287 38.3907C36.9259 37.0532 38.735 35.4719 40.566 35.9743C40.5879 38.7971 43.7027 41.28 45.2492 43.6225C47.8607 47.5611 47.5106 52.7116 47.1969 57.4409C46.7665 63.9585 46.606 70.5499 47.6929 76.9936C48.7798 83.4372 51.1871 89.7701 55.4107 94.7063C56.184 95.6152 57.0885 96.731 56.7238 97.8764C56.3226 99.1548 54.6229 99.4504 53.339 99.1104C51.1652 98.5267 49.4291 96.8345 48.189 94.928C46.9562 93.0215 46.1245 90.8785 45.0814 88.8612Z" fill="#F4424F"/>
<path d="M42.9806 55.2393C42.0031 55.3649 41.2736 54.3526 40.9381 53.4141C40.2305 51.4189 40.267 49.1873 39.3551 47.2808C39.0561 46.6527 38.6548 46.0763 38.4506 45.4112C38.2463 44.7462 38.2828 43.9407 38.7716 43.453C39.2384 42.9875 40.0044 42.9357 40.6171 43.1796C41.2299 43.4235 41.7113 43.9112 42.1344 44.421C44.1696 46.8522 45.2784 50.2144 44.5344 53.3106C44.3374 54.1752 43.8487 55.1285 42.9806 55.2393Z" fill="white"/>
<path d="M54.557 95.3198C54.6227 95.3198 54.6811 95.2976 54.7321 95.2533C54.8488 95.1572 54.8634 94.9799 54.7613 94.8617C47.1237 85.6913 46.0806 74.1193 46.5474 66.0277C46.6642 64.0326 46.6642 62.0005 46.6642 60.0348C46.6642 58.4165 46.6642 56.7391 46.7298 55.0986L46.759 54.3597C46.9049 50.9679 47.0581 47.4653 45.1396 44.5833C44.5487 43.6966 43.9213 42.9355 43.3159 42.1965C41.9664 40.5561 40.6898 39.0043 40.0041 36.2997C39.9676 36.1519 39.8217 36.0632 39.6685 36.1002C39.5226 36.1371 39.4351 36.2923 39.4716 36.4401C40.1865 39.2629 41.4995 40.859 42.8928 42.5512C43.491 43.2754 44.1037 44.0291 44.6873 44.8937C46.511 47.6278 46.3578 51.0418 46.2192 54.3375L46.19 55.0839C46.1243 56.7317 46.1244 58.4165 46.1171 60.0422C46.1171 62.0005 46.1098 64.0252 46.0003 66.0056C45.5262 74.2006 46.5912 85.9203 54.3455 95.2311C54.4039 95.2829 54.4768 95.3198 54.557 95.3198Z" fill="white"/>
</g>
<g clip-path="url(#clip1_970_2)">
<path d="M102.116 12.9231C105.008 11.9316 105.624 11.1586 107.537 8.77246L112.175 15.7573C109.59 18.2779 107.224 19.9864 103.895 21.6164C104.315 18.4852 103.856 15.0012 102.116 12.9231Z" fill="#F9867D"/>
<path d="M103.884 17.3708C103.638 15.6567 103.078 14.0772 102.122 12.9233C104.717 12.0327 105.484 11.3213 106.989 9.45605C107.677 12.7833 106.25 15.4719 103.884 17.3708Z" fill="#14345A"/>
<path d="M96.8129 4.78422C96.8968 3.68076 97.6689 2.71732 98.6199 2.15159C99.571 1.58025 100.679 1.35059 101.77 1.18816C103.179 0.980906 104.74 0.902487 105.915 1.72028C106.687 2.25801 107.179 3.10942 107.504 3.99443C108.433 6.52064 108.097 9.45575 106.743 11.7803C105.389 14.1105 103.565 16.0149 101.009 16.4966C100.097 14.8218 99.3248 13.8024 98.6255 11.8307C98.4745 11.3994 98.7038 10.9233 98.6255 10.688C98.5304 10.4024 98.0101 10.1111 97.915 9.82544C97.5066 8.53713 97.3556 7.74173 97.0255 6.42542C96.8968 5.88769 96.7682 5.33315 96.8129 4.78422Z" fill="#F9867D"/>
<path d="M103.364 8.09391C103.224 7.70182 102.81 7.37694 102.413 7.48897C102.016 7.601 101.73 8.05471 101.764 8.4636C101.809 9.03494 101.864 9.42704 101.702 9.6903C101.199 8.60364 100.561 7.58419 99.7945 6.66557C101.948 5.64052 104.102 4.61548 106.262 3.59043C106.43 3.51201 106.597 3.43359 106.782 3.43359C106.944 3.43359 107.095 3.50081 107.235 3.58483C107.867 3.96572 108.214 4.6939 108.332 5.42207C108.455 6.15025 108.388 6.88963 108.382 7.629C108.376 8.36838 108.443 9.13016 108.807 9.77432C107.537 9.89755 106.234 9.67349 105.076 9.13577C104.589 8.91171 104.041 8.63164 103.548 8.79969C103.504 8.54202 103.437 8.28996 103.364 8.09391Z" fill="#14345A"/>
<path d="M104.779 0.706209C103.638 0.37573 102.413 0.571777 101.26 0.851844C99.9513 1.17112 98.6422 1.61923 97.5681 2.42582C97.21 2.69469 96.8688 3.02517 96.7289 3.45087C96.6282 3.76455 96.6506 4.10623 96.673 4.43671C96.7121 4.96884 96.7457 5.50656 96.7848 6.03869C96.8072 6.36357 96.8464 6.71646 97.0869 6.93491C97.3387 7.15896 97.7191 7.14776 98.0548 7.11975C99.8562 6.97972 101.702 6.82848 103.353 6.08911C104.432 5.60739 105.417 4.88482 106.575 4.62155C106.838 4.55994 107.129 4.52073 107.325 4.33028C107.627 4.03901 107.565 3.53489 107.414 3.1428C106.978 1.98332 105.971 1.05349 104.779 0.706209Z" fill="#14345A"/>
<path d="M100.874 0.572174C99.6491 1.00908 98.4575 1.55241 97.3274 2.20217C96.9079 2.44302 96.4715 2.72869 96.2981 3.1824C96.1582 3.55769 96.2254 3.97219 96.3037 4.35869C96.5498 5.56858 96.8967 6.76166 97.333 7.91554C100.499 7.80912 103.638 6.92971 106.407 5.37813C107.067 5.00844 107.783 4.47071 107.778 3.71453C107.778 3.34484 107.599 3.00876 107.425 2.68388C107.056 1.99492 106.67 1.29475 106.072 0.796228C105.372 0.21929 104.432 -0.0159671 103.526 0.000836912C102.614 0.017641 101.73 0.269702 100.874 0.572174Z" fill="#F4424F"/>
<path d="M96.7569 5.27763C96.6003 4.71189 96.4436 4.10695 96.6059 3.53561C96.7737 2.96427 97.2436 2.52177 97.7639 2.2361C98.2842 1.94483 98.8604 1.77679 99.4143 1.55273C99.1457 1.91122 99.045 2.37613 99.0562 2.81864C99.0674 3.26675 99.1849 3.70365 99.3136 4.12935C99.6772 5.30564 100.17 6.43711 100.779 7.50137C100.287 7.61339 99.7947 7.72542 99.2912 7.73662C98.7877 7.74222 98.273 7.6358 97.8646 7.33893C97.2213 6.87962 96.9695 6.04502 96.7569 5.27763Z" fill="#F2D525"/>
<path d="M97.1598 7.05255C96.4773 7.08055 96.427 7.53426 94.0717 8.34646C95.3864 9.14745 96.6004 9.47793 98.0493 8.95701C99.4983 8.43608 100.807 7.86474 102.184 7.15337C100.544 7.54547 98.8381 6.98533 97.1598 7.05255Z" fill="#F4424F"/>
<path d="M106.307 2.53254C106.318 2.43172 106.407 2.3533 106.486 2.29169C106.575 2.22447 106.676 2.15165 106.782 2.17406C106.888 2.19646 106.956 2.29729 107.012 2.39251C107.146 2.61656 107.286 2.85742 107.302 3.12069C107.319 3.38395 107.163 3.67522 106.905 3.72563C106.726 3.40075 106.547 3.07587 106.368 2.751C106.34 2.68378 106.301 2.61096 106.307 2.53254Z" fill="#14345A"/>
<path d="M98.2561 12.351C98.3289 12.0709 98.3456 11.7012 98.5974 11.5556C98.7988 11.438 99.0449 11.4268 99.2799 11.4268C100.455 11.4324 100.6 11.55 101.775 11.5724C102.195 12.6647 103.302 13.3312 103.901 14.3339C103.504 14.782 103.392 15.7678 102.844 16.0031C102.29 16.2383 101.708 16.3952 101.126 16.5464C100.936 16.5968 100.729 16.6416 100.555 16.5632C100.455 16.5184 100.376 16.4288 100.304 16.3503C100.041 16.0591 99.8897 15.8182 99.6268 15.5269C99.2184 15.0732 98.6925 14.5579 98.4072 14.0202C98.1163 13.4825 98.0995 12.9447 98.2561 12.351Z" fill="white"/>
<path d="M103.269 14.9C103.285 14.9 103.302 14.9 103.325 14.8944C103.716 14.788 103.979 14.4127 104.108 13.7797C104.471 11.9761 104.343 10.1053 103.727 8.36884C103.688 8.25682 103.571 8.2008 103.459 8.24001C103.353 8.27922 103.291 8.39685 103.33 8.50888C103.918 10.1725 104.046 11.9649 103.699 13.6957C103.604 14.1606 103.442 14.4295 103.218 14.4911C103.106 14.5191 103.039 14.6368 103.067 14.7488C103.09 14.8384 103.174 14.9 103.269 14.9Z" fill="white"/>
<path d="M101.311 12.4071C101.383 12.4071 101.45 12.3679 101.49 12.3006C102.071 11.3092 102.178 10.0713 101.775 8.99025C101.736 8.88383 101.613 8.82781 101.506 8.86702C101.4 8.90623 101.344 9.02946 101.383 9.13589C101.741 10.0993 101.646 11.1972 101.132 12.0878C101.07 12.1886 101.109 12.3175 101.204 12.3735C101.238 12.3959 101.271 12.4071 101.311 12.4071Z" fill="white"/>
<path d="M78.5525 48.312C79.2294 47.6455 79.8224 46.9005 80.3203 46.0939C80.4266 45.9259 80.5273 45.7466 80.5665 45.5562C80.6112 45.3601 80.5832 45.1417 80.4546 44.9904C80.2811 44.7832 79.979 44.7552 79.7161 44.6824C79.442 44.6039 79.1734 44.4471 79.0224 44.2006C78.8713 43.9542 78.8658 43.6125 79.056 43.394C80.0294 43.8814 81.2266 43.4277 82.2839 43.6965C82.7818 43.8253 83.2238 44.0998 83.6769 44.3351C84.4825 44.0606 85.2546 43.7133 85.9874 43.282C85.993 43.2932 85.9986 43.3044 86.0042 43.3212C94.4965 37.9159 103.565 25.2737 107.308 19.6387C111.733 17.4262 114.424 18.8657 113.943 23.106C111.313 38.4593 97.4392 45.6738 88.0126 47.7183C88.0462 47.7855 88.0741 47.8527 88.1077 47.9199C87.3077 48.116 86.5245 48.3624 85.7469 48.6313C85.0364 49.3259 84.2252 49.9196 83.3357 50.3621C83 50.5302 82.614 50.6814 82.2504 50.5806C81.9147 50.4853 81.6574 50.1829 81.3161 50.1269C81.0476 50.0821 80.7679 50.1997 80.5049 50.1437C80.0741 50.0596 79.8224 49.5835 79.4084 49.4379C79.1958 49.3651 78.9665 49.3819 78.7427 49.3483C78.5189 49.3147 78.2839 49.197 78.228 48.9786C78.1553 48.7321 78.3623 48.4969 78.5525 48.312Z" fill="#14345A"/>
<path d="M62.5078 41.3613H86.312V45.3103H62.5078V41.3613Z" fill="#F4424F"/>
<path d="M62.5078 44.3467H86.312V45.3101H62.5078V44.3467Z" fill="#14345A"/>
<path d="M59 37.5078H82.8042V41.4568H59V37.5078Z" fill="#F4424F"/>
<path d="M59 40.376H82.8042V41.457H59V40.376Z" fill="#14345A"/>
<path d="M61.3833 45.0195H85.1875V48.9685H61.3833V45.0195Z" fill="#F4424F"/>
<path d="M103.985 121.102C104.013 120.822 104.046 120.542 104.074 120.268C107.683 120.536 111.308 120.62 114.922 120.503C115.168 120.497 115.42 120.486 115.66 120.548C115.901 120.609 116.058 120.475 116.181 120.71C116.298 120.945 116.349 121.55 116.158 121.718C114.239 122.021 112.287 121.898 110.351 122.004C109.26 122.066 108.17 122.2 107.079 122.138C105.988 122.066 104.874 121.791 103.985 121.102Z" fill="white"/>
<path d="M109.719 121.528C107.755 121.612 105.685 121.646 103.957 120.71C103.957 119.943 104.522 119.271 105.199 118.906C105.87 118.542 106.648 118.425 107.403 118.285C108.158 118.145 108.93 117.977 109.551 117.523C110.172 117.075 110.609 116.279 110.413 115.54C112.153 115.725 113.909 115.781 115.66 115.691C116.153 117.467 116.365 119.321 116.287 121.164C114.094 121.315 111.906 121.433 109.719 121.528Z" fill="#14345A"/>
<path d="M110.737 117.371C110.648 117.343 110.553 117.394 110.469 117.439C109.149 118.2 107.649 118.648 106.133 118.732C106.379 119.046 106.793 119.197 107.196 119.214C107.599 119.231 107.99 119.13 108.382 119.035C109.244 118.816 110.167 118.559 110.732 117.875C110.793 117.797 110.855 117.713 110.866 117.618C110.877 117.511 110.832 117.399 110.737 117.371Z" fill="#D62D41"/>
<path d="M110.144 118.845C110.2 118.85 110.251 118.833 110.301 118.8C110.402 118.727 110.424 118.581 110.351 118.48C110.1 118.139 109.814 117.814 109.501 117.523C109.411 117.439 109.266 117.439 109.177 117.534C109.093 117.623 109.093 117.769 109.188 117.859C109.479 118.133 109.747 118.43 109.982 118.755C110.021 118.811 110.083 118.839 110.144 118.845Z" fill="white"/>
<path d="M109.182 119.219C109.227 119.225 109.277 119.214 109.322 119.186C109.428 119.119 109.462 118.979 109.395 118.872C109.193 118.547 108.947 118.245 108.667 117.982C108.578 117.898 108.432 117.898 108.343 117.993C108.259 118.082 108.259 118.228 108.354 118.318C108.606 118.553 108.824 118.822 109.009 119.113C109.048 119.18 109.109 119.214 109.182 119.219Z" fill="white"/>
<path d="M108.018 119.36C108.057 119.365 108.102 119.354 108.141 119.337C108.253 119.281 108.298 119.141 108.242 119.029C108.097 118.744 107.918 118.486 107.699 118.256C107.61 118.167 107.47 118.161 107.375 118.245C107.285 118.329 107.28 118.475 107.364 118.57C107.548 118.766 107.705 118.99 107.828 119.237C107.873 119.309 107.946 119.354 108.018 119.36Z" fill="white"/>
<path d="M115.839 117.853H108.276C108.796 96.2765 108.085 74.6721 106.469 53.1629C110.771 53.4206 115.129 52.5524 119.09 50.6479L122.485 50.4463C125.657 62.5956 123.957 75.6524 121.422 87.9921C119.392 97.9009 116.824 107.787 115.839 117.853Z" fill="#14345A"/>
<path d="M108.281 121.959C108.315 121.679 108.343 121.398 108.376 121.124C112.265 121.393 116.164 121.477 120.058 121.359C120.32 121.354 120.595 121.342 120.852 121.404C121.109 121.466 121.283 121.331 121.411 121.567C121.54 121.802 121.596 122.407 121.389 122.575C119.325 122.877 117.221 122.754 115.134 122.86C113.96 122.922 112.785 123.056 111.61 122.995C110.435 122.922 109.238 122.642 108.281 121.959Z" fill="white"/>
<path d="M114.441 122.255C112.343 122.345 110.139 122.378 108.287 121.381C108.287 120.564 108.891 119.847 109.613 119.454C110.335 119.062 111.157 118.939 111.962 118.788C112.768 118.642 113.59 118.457 114.256 117.976C114.922 117.5 115.381 116.648 115.174 115.858C117.031 116.06 118.905 116.11 120.774 116.021C121.3 117.92 121.529 119.897 121.445 121.863C119.112 122.031 116.779 122.16 114.441 122.255Z" fill="#14345A"/>
<path d="M115.291 117.315C115.201 117.292 115.106 117.348 115.028 117.404C113.775 118.272 112.32 118.844 110.815 119.057C111.089 119.354 111.515 119.466 111.912 119.449C112.315 119.432 112.701 119.298 113.075 119.169C113.915 118.877 114.815 118.547 115.319 117.813C115.375 117.729 115.425 117.64 115.431 117.544C115.442 117.449 115.386 117.343 115.291 117.315Z" fill="#D62D41"/>
<path d="M114.821 118.838C114.877 118.838 114.927 118.821 114.972 118.782C115.067 118.698 115.078 118.552 114.994 118.457C114.715 118.138 114.401 117.841 114.066 117.578C113.965 117.499 113.825 117.516 113.747 117.617C113.668 117.718 113.685 117.858 113.786 117.936C114.099 118.183 114.39 118.463 114.653 118.759C114.692 118.81 114.754 118.838 114.821 118.838Z" fill="white"/>
<path d="M113.892 119.291C113.937 119.291 113.987 119.275 114.026 119.247C114.127 119.174 114.149 119.028 114.071 118.927C113.842 118.619 113.573 118.339 113.271 118.104C113.176 118.026 113.031 118.042 112.952 118.143C112.874 118.244 112.891 118.384 112.991 118.462C113.26 118.675 113.506 118.927 113.707 119.202C113.752 119.263 113.819 119.291 113.892 119.291Z" fill="white"/>
<path d="M112.745 119.527C112.784 119.527 112.829 119.516 112.863 119.494C112.969 119.427 113.003 119.287 112.936 119.18C112.768 118.911 112.566 118.665 112.331 118.458C112.236 118.373 112.096 118.379 112.007 118.474C111.923 118.57 111.929 118.715 112.024 118.799C112.225 118.978 112.398 119.191 112.544 119.427C112.594 119.488 112.667 119.527 112.745 119.527Z" fill="white"/>
<path d="M121.652 117.853H112.734C113.137 96.0469 109.758 74.6721 108.141 53.1629C112.444 53.4206 116.802 52.5524 120.762 50.6479L124.158 50.4463C127.33 62.5956 125.63 75.6524 123.095 87.9921C121.065 97.9009 121.853 107.406 121.652 117.853Z" fill="#F4424F"/>
<path d="M108.141 53.1632C110.072 53.2809 112.013 53.1576 113.92 52.8271C115.61 74.2859 117.506 96.3272 114.961 117.853H112.734C113.137 96.0415 109.758 74.6724 108.141 53.1632Z" fill="#D62D41"/>
<path d="M107.112 54.9609H124.639V56.9886H107.112V54.9609Z" fill="#14345A"/>
<path d="M119.017 54.6084H119.878V57.3475H119.017V54.6084Z" fill="#F4424F"/>
<path d="M110.228 54.6084H111.09V57.3475H110.228V54.6084Z" fill="#F4424F"/>
<path d="M112.483 15.1585C118.418 20.8326 121.143 25.8515 123.414 33.755C125.406 40.6894 126.239 46.526 126.989 53.3765C127.151 54.8664 125.881 56.1267 124.393 55.9475C118.597 55.2697 113.859 54.9841 108.119 56.1379C106.944 56.3732 105.87 55.4658 105.87 54.2615C105.876 46.0443 101.327 36.9701 101.478 33.038C101.618 29.4867 102.273 27.9408 102.905 24.4399C103.056 23.6053 103.218 22.6755 103.347 21.6953C106.681 20.0653 109.753 17.4942 112.337 14.9736L112.483 15.1585Z" fill="#F4424F"/>
<path d="M102.905 24.4395C103.056 23.6049 103.218 22.6751 103.347 21.6949C106.094 20.3506 108.661 18.3677 110.927 16.3008C116.309 22.031 110.413 29.828 112.091 36.5385C113.243 41.7365 116.706 45.7807 115.554 50.9843C115.554 51.5613 114.978 53.2977 114.978 53.8746C115.531 54.4292 116.124 54.9165 116.751 55.359C113.948 55.3142 111.173 55.5214 108.119 56.132C106.944 56.3672 105.87 55.4598 105.87 54.2555C105.875 46.0439 101.327 36.9698 101.478 33.0376C101.618 29.4808 102.278 27.9404 102.905 24.4395Z" fill="#D62D41"/>
<path d="M115.252 26.4892C114.335 33.1716 110.491 39.3947 104.93 43.2036C104.416 41.5568 103.901 39.91 103.386 38.2632C108.981 34.0958 112.701 27.4974 113.384 20.5518C114.351 21.0895 114.967 22.1145 115.224 23.19C115.476 24.2655 115.403 25.3913 115.252 26.4892Z" fill="#14345A"/>
<path d="M111.498 14.1387C112.102 14.6708 112.701 15.2029 113.305 15.7295C110.234 18.1772 107.314 20.8211 104.572 23.633C104.432 22.7591 104.293 22.0086 103.577 21.4988C103.386 21.8293 103.358 22.9328 103.163 23.2633C102.726 22.4455 102.446 20.5634 103 19.8184C103.554 19.0735 104.36 18.5693 105.149 18.0764C107.263 16.7657 109.383 15.4494 111.498 14.1387Z" fill="white"/>
<path d="M117.098 22.2492C117.176 21.9691 117.406 21.9075 117.607 22.0027C117.808 22.1035 117.999 22.3332 118.178 22.5684C120.029 24.9938 121.529 28.2986 122.379 31.8275C122.446 32.1131 122.513 32.4044 122.502 32.6845C122.491 32.9589 122.39 33.2166 122.222 33.2166C122.06 33.2222 121.904 33.0038 121.764 32.8021C119.951 30.1191 118.401 26.8871 117.249 23.403C117.126 23.0278 117.003 22.5741 117.098 22.2492Z" fill="#F2D525"/>
<path d="M108.147 20.2725C112.572 18.06 115.263 19.4995 114.782 23.7397C111.895 40.5942 95.4641 47.6407 86.2333 48.8058C84.5997 48.7218 83.9676 46.5932 83.6543 45.6242C92.9578 41.8601 103.934 26.6188 108.147 20.2725Z" fill="#F4424F"/>
<path d="M79.3915 48.946C80.0685 48.2795 80.6615 47.5345 81.1594 46.7279C81.2657 46.5599 81.3664 46.3806 81.4055 46.1902C81.4503 45.9941 81.4223 45.7757 81.2936 45.6244C81.1202 45.4172 80.8181 45.3892 80.5552 45.3164C80.281 45.2379 80.0125 45.0811 79.8615 44.8346C79.7104 44.5882 79.7048 44.2465 79.895 44.028C80.8685 44.5154 82.0657 44.0616 83.123 44.3305C83.6209 44.4593 84.0629 44.7338 84.516 44.9691C85.3216 44.6946 86.0936 44.3473 86.8265 43.916C87.5314 45.462 88.2419 47.0136 88.9468 48.5595C88.1468 48.7556 87.3636 49.002 86.5859 49.2709C85.8754 49.9655 85.0643 50.5592 84.1747 51.0017C83.8391 51.1698 83.4531 51.321 83.0894 51.2202C82.7538 51.125 82.4964 50.8225 82.1552 50.7665C81.8866 50.7217 81.6069 50.8393 81.344 50.7833C80.9132 50.6992 80.6615 50.2231 80.2475 50.0775C80.0349 50.0047 79.8055 50.0215 79.5817 49.9879C79.358 49.9543 79.123 49.8366 79.0671 49.6182C78.9943 49.3605 79.2013 49.1309 79.3915 48.946Z" fill="white"/>
<path d="M112.717 25.3358C112.824 25.8175 112.807 26.3216 112.633 26.8145C112.225 27.9796 111.022 28.7862 109.791 28.6462C108.684 28.523 107.699 27.6828 107.375 26.6129C107.056 25.543 107.403 24.3107 108.225 23.5546C108.79 23.0392 109.59 22.7424 110.334 22.9104C111.515 23.1793 112.466 24.1819 112.717 25.3358Z" fill="#F2D525"/>
</g>
<defs>
<clipPath id="clip0_970_2">
<rect width="152" height="101" fill="white" transform="matrix(-1 0 0 1 152 19)"/>
</clipPath>
<clipPath id="clip1_970_2">
<rect width="72" height="123" fill="white" transform="translate(57)"/>
</clipPath>
</defs>
</svg>
