<svg width="113" height="100" viewBox="0 0 113 100" fill="none" xmlns="http://www.w3.org/2000/svg">
<g id="Group">
<path id="Vector" d="M109.249 30.1582H3.73633V99.8849H109.249V30.1582Z" fill="#00A0BE"/>
<path id="Vector_2" d="M92.8179 99.9001L67.3124 99.844V99.9001H65.0187L64.961 99.844L61.6718 96.6472L59.6377 94.6703V93.2681C58.1951 92.8475 57.1997 91.3753 57.6181 89.7629C52.9296 90.0433 51.6745 83.6357 56.1033 82.1775C54.1414 80.2706 56.1033 76.9757 58.8443 77.845C58.7577 75.3352 60.8351 73.4424 63.2154 73.4424C65.6967 73.4424 67.7885 75.4614 67.5577 78.0693C68.4377 77.5646 69.3321 77.5786 70.0534 77.9291L71.3518 79.191L92.8179 99.9001Z" fill="#008CAA"/>
<path id="Vector_3" d="M109.264 82.2338V99.8863H96.9439L93.6836 96.7036L91.7793 94.8528L91.7937 93.2404V84.365C91.7937 85.9634 90.4665 87.2534 88.822 87.2534C86.9321 87.2534 85.4318 85.5288 85.9367 83.6359C81.2482 83.9023 79.9932 77.5087 84.4076 76.0505C82.4456 74.1297 84.422 70.8347 87.1629 71.718C87.0908 69.2083 89.1393 67.3154 91.5341 67.3154C94.0009 67.3154 96.1216 69.3345 95.8763 71.9564C96.9439 71.3395 98.0114 71.4937 98.7904 72.0405L109.264 82.2338Z" fill="#008CAA"/>
<path id="Vector_4" d="M113 96.7031H0V99.8999H113V96.7031Z" fill="#006478"/>
<path id="Vector_5" d="M46.5244 33.4541H21.7402V99.8999H46.5244V33.4541Z" fill="#006478"/>
<path id="Vector_6" d="M43.6536 42.624H24.7554V91.5996H43.6536V42.624Z" fill="#BEF5FA"/>
<path id="Vector_7" d="M43.6536 36.3857H24.7554V40.2415H43.6536V36.3857Z" fill="#BEF5FA"/>
<path id="Vector_8" d="M18.7249 33.4541H6.13086V91.5994H18.7249V33.4541Z" fill="#BEF5FA"/>
<path id="Vector_9" d="M105.124 33.4541H49.6694V91.5994H105.124V33.4541Z" fill="#BEF5FA"/>
<path id="Vector_10" d="M112.755 20.1904H0.245117V30.2856H112.755V20.1904Z" fill="#00B4D2"/>
<path id="Vector_11" d="M112.755 20.1903C110.259 20.1903 107.821 20.1903 105.455 20.1903C103.089 20.1903 100.781 20.1903 98.5163 20.1903C96.2658 20.1903 94.0586 20.1903 91.9091 20.1903C89.7596 20.1903 87.6534 20.1903 85.576 20.1903C83.5131 20.1903 81.479 20.1903 79.4738 20.1903C77.4685 20.1903 75.5066 20.1903 73.5591 20.1903C71.6115 20.1903 69.6929 20.1903 67.7886 20.1903C65.8844 20.1903 63.9945 20.1903 62.1047 20.1903C60.2149 20.1903 58.3395 20.1903 56.4785 20.1903C54.6031 20.1903 52.7277 20.1903 50.8523 20.1903C48.9625 20.1903 47.0727 20.1903 45.1684 20.1903C43.2642 20.1903 41.3455 20.1903 39.3979 20.1903C37.4504 20.1903 35.4885 20.1903 33.4832 20.1903C31.4924 20.1903 29.4583 20.1903 27.3954 20.1903C25.3325 20.1903 23.2262 20.1903 21.0623 20.1903C18.9128 20.1903 16.72 20.1903 14.4551 20.1903C12.2047 20.1903 9.89648 20.1903 7.53059 20.1903C5.1647 20.1903 2.72668 20.1903 0.230957 20.1903C1.63029 18.1713 2.87094 16.4046 3.99618 14.7642C5.15027 13.1237 6.21781 11.6094 7.25649 10.0952C8.3096 8.58088 9.37713 7.06661 10.5168 5.42615C11.6565 3.78568 12.8683 2.01903 14.282 0C16.6912 0 19.0138 0 21.2787 0C23.5292 0 25.7075 0 27.8282 0C29.9488 0 31.9973 0 34.0026 0C36.0078 0 37.9698 0 39.8884 0C41.8071 0 43.6969 0 45.5435 0C47.4045 0 49.2366 0 51.0543 0C52.872 0 54.6897 0 56.4929 0C58.2962 0 60.1139 0 61.9316 0C63.7493 0 65.5958 0 67.4424 0C69.3033 0 71.1787 0 73.1119 0C75.0305 0 76.9925 0 78.9977 0C81.003 0 83.0659 0 85.1721 0C87.2928 0 89.4711 0 91.7216 0C93.9721 0 96.2947 0 98.7038 0C100.103 2.01903 101.344 3.78568 102.483 5.42615C103.623 7.06661 104.676 8.58088 105.729 10.0952C106.782 11.6094 107.836 13.1237 108.975 14.7642C110.115 16.4046 111.341 18.1713 112.755 20.1903Z" fill="#00A0BE"/>
<g id="Group_2">
<path id="Vector_12" d="M7.06895 20.1903C5.69847 20.1903 4.67421 20.1903 3.64995 20.1903C2.6257 20.1903 1.60144 20.1903 0.230957 20.1903C1.63029 18.1713 2.87094 16.4046 3.99618 14.7642C5.15027 13.1237 6.21781 11.6094 7.25649 10.0952C8.3096 8.58088 9.37713 7.06661 10.5168 5.42615C11.6565 3.78568 12.8683 2.01903 14.282 0C16.3305 0 17.3548 0 19.4033 0C18.1771 2.01903 17.0951 3.78568 16.0997 5.42615C15.0899 7.06661 14.1522 8.58088 13.2433 10.0952C12.3056 11.6094 11.3824 13.1237 10.387 14.7642C9.37713 16.4046 8.3096 18.1713 7.06895 20.1903Z" fill="#006478"/>
<path id="Vector_13" d="M20.2833 20.1903C18.9128 20.1903 17.8886 20.1903 16.8643 20.1903C15.8401 20.1903 14.8158 20.1903 13.4453 20.1903C14.5273 18.1713 15.465 16.4046 16.3305 14.7642C17.1961 13.1237 18.004 11.6094 18.8118 10.0952C19.6197 8.58088 20.4276 7.06661 21.2931 5.42615C22.1587 3.78568 23.0964 2.01903 24.1784 0C26.2269 0 27.2511 0 29.2996 0C28.3908 2.01903 27.6118 3.78568 26.8761 5.42615C26.1403 7.06661 25.4623 8.58088 24.7843 10.0952C24.1062 11.6094 23.4282 13.1237 22.6925 14.7642C21.9712 16.4046 21.1777 18.1713 20.2833 20.1903Z" fill="#006478"/>
<path id="Vector_14" d="M33.483 20.1903C32.127 20.1903 31.0883 20.1903 30.064 20.1903C29.0398 20.1903 28.0155 20.1903 26.645 20.1903C27.3952 18.1713 28.0444 16.4046 28.6503 14.7642C29.2562 13.1237 29.8188 11.6094 30.367 10.0952C30.9296 8.58088 31.4922 7.06661 32.0837 5.42615C32.7184 3.78568 33.3676 2.01903 34.1033 0C36.1519 0 37.1761 0 39.2246 0C38.6476 2.01903 38.1427 3.78568 37.681 5.42615C37.2194 7.06661 36.7866 8.58088 36.3682 10.0952C35.9355 11.6094 35.5027 13.1237 35.041 14.7642C34.565 16.4046 34.0601 18.1713 33.483 20.1903Z" fill="#006478"/>
<path id="Vector_15" d="M46.6974 20.1903C45.3413 20.1903 44.3026 20.1903 43.2784 20.1903C42.2541 20.1903 41.2299 20.1903 39.8594 20.1903C40.2777 18.1713 40.6384 16.4046 40.9702 14.7642C41.302 13.1237 41.6194 11.6094 41.9223 10.0952C42.2397 8.58088 42.5426 7.06661 42.8889 5.42615C43.2495 3.78568 43.6102 2.01903 44.0285 0C46.077 0 47.1013 0 49.1498 0C48.9046 2.01903 48.6882 3.78568 48.4862 5.42615C48.2842 7.06661 48.1111 8.58088 47.9236 10.0952C47.7361 11.6094 47.5629 13.1237 47.361 14.7642C47.159 16.4046 46.9426 18.1713 46.6974 20.1903Z" fill="#006478"/>
<path id="Vector_16" d="M59.9117 20.1903C58.5412 20.1903 57.517 20.1903 56.4927 20.1903C55.4685 20.1903 54.4442 20.1903 53.0737 20.1903C53.1603 18.1713 53.2324 16.4046 53.3045 14.7642C53.3767 13.1237 53.4488 11.6094 53.5065 10.0952C53.5642 8.58088 53.6363 7.06661 53.7085 5.42615C53.7806 3.78568 53.8527 2.01903 53.9393 0C55.9878 0 57.0121 0 59.0606 0C59.1471 2.01903 59.2193 3.78568 59.2914 5.42615C59.3635 7.06661 59.4212 8.58088 59.4934 10.0952C59.5511 11.6094 59.6232 13.1237 59.6953 14.7642C59.753 16.4046 59.8252 18.1713 59.9117 20.1903Z" fill="#006478"/>
<path id="Vector_17" d="M73.1261 20.1903C71.7556 20.1903 70.7314 20.1903 69.7071 20.1903C68.6829 20.1903 67.6586 20.1903 66.2881 20.1903C66.0429 18.1713 65.8265 16.4046 65.6245 14.7642C65.4226 13.1237 65.235 11.6094 65.0619 10.0952C64.8744 8.58088 64.6868 7.06661 64.4993 5.42615C64.3117 3.78568 64.0953 2.01903 63.8501 0C65.8986 0 66.9229 0 68.9714 0C69.3897 2.01903 69.7504 3.78568 70.0822 5.42615C70.414 7.06661 70.7314 8.58088 71.0343 10.0952C71.3517 11.6094 71.6546 13.1237 72.0009 14.7642C72.3471 16.4046 72.7078 18.1713 73.1261 20.1903Z" fill="#006478"/>
<path id="Vector_18" d="M86.3264 20.1903C84.9559 20.1903 83.9317 20.1903 82.9074 20.1903C81.8832 20.1903 80.8589 20.1903 79.4884 20.1903C78.9114 18.1713 78.4064 16.4046 77.9448 14.7642C77.4832 13.1237 77.0504 11.6094 76.6176 10.0952C76.1848 8.58088 75.752 7.06661 75.2904 5.42615C74.8432 3.78568 74.3383 2.01903 73.7612 0C75.8097 0 76.834 0 78.8825 0C79.6327 2.01903 80.2818 3.78568 80.8733 5.42615C81.4792 7.06661 82.0418 8.58088 82.59 10.0952C83.1527 11.6094 83.7153 13.1237 84.3067 14.7642C84.9415 16.4046 85.5907 18.1713 86.3264 20.1903Z" fill="#006478"/>
<path id="Vector_19" d="M99.5404 20.1903C98.1699 20.1903 97.1456 20.1903 96.1358 20.1903C95.1115 20.1903 94.0873 20.1903 92.7168 20.1903C91.808 18.1713 91.0145 16.4046 90.2788 14.7642C89.5431 13.1237 88.865 11.6094 88.187 10.0952C87.509 8.58088 86.8309 7.06661 86.0952 5.42615C85.3739 3.78568 84.5805 2.01903 83.686 0C85.7345 0 86.7588 0 88.8073 0C89.8749 2.01903 90.827 3.78568 91.6926 5.42615C92.5725 7.06661 93.366 8.58088 94.1738 10.0952C94.9817 11.6094 95.7896 13.1237 96.6551 14.7642C97.5351 16.4046 98.4728 18.1713 99.5404 20.1903Z" fill="#006478"/>
<path id="Vector_20" d="M112.755 20.1903C111.385 20.1903 110.36 20.1903 109.336 20.1903C108.312 20.1903 107.288 20.1903 105.917 20.1903C104.691 18.1713 103.609 16.4046 102.599 14.7642C101.604 13.1237 100.666 11.6094 99.7427 10.0952C98.8194 8.58088 97.8962 7.06661 96.8863 5.42615C95.9054 3.78568 94.8234 2.01903 93.5972 0C95.6457 0 96.6699 0 98.7185 0C100.118 2.01903 101.358 3.78568 102.498 5.42615C103.638 7.06661 104.691 8.58088 105.744 10.0952C106.797 11.6094 107.85 13.1237 108.99 14.7642C110.115 16.4046 111.341 18.1713 112.755 20.1903Z" fill="#006478"/>
</g>
<g id="Group_3">
<path id="Vector_21" d="M7.06868 20.1895H0.245117V30.2846H7.06868V20.1895Z" fill="#006478"/>
<path id="Vector_22" d="M20.283 20.1895H13.4595V30.2846H20.283V20.1895Z" fill="#006478"/>
<path id="Vector_23" d="M33.4974 20.1895H26.6738V30.2846H33.4974V20.1895Z" fill="#006478"/>
<path id="Vector_24" d="M46.6971 20.1895H39.8735V30.2846H46.6971V20.1895Z" fill="#006478"/>
<path id="Vector_25" d="M59.9115 20.1895H53.0879V30.2846H59.9115V20.1895Z" fill="#006478"/>
<path id="Vector_26" d="M73.1258 20.1895H66.3022V30.2846H73.1258V20.1895Z" fill="#006478"/>
<path id="Vector_27" d="M86.326 20.1895H79.5024V30.2846H86.326V20.1895Z" fill="#006478"/>
<path id="Vector_28" d="M99.5404 20.1895H92.7168V30.2846H99.5404V20.1895Z" fill="#006478"/>
<path id="Vector_29" d="M112.755 20.1895H105.931V30.2846H112.755V20.1895Z" fill="#006478"/>
</g>
<path id="Vector_30" opacity="0.5" d="M43.6537 43.6476V54.1213L31.8242 42.624H42.6006L43.6537 43.6476Z" fill="white"/>
<path id="Vector_31" d="M105.124 91.6002V78.2101L98.7616 72.0269C97.9826 71.48 96.9151 71.3258 95.8475 71.9427C96.0928 69.3208 93.9866 67.3018 91.5053 67.3018C89.1105 67.3018 87.062 69.1946 87.1341 71.7044C84.3932 70.821 82.4168 74.116 84.3787 76.0369C79.9643 77.4951 81.2194 83.8887 85.9079 83.6223C85.403 85.5151 86.8889 87.2397 88.7931 87.2397C90.4377 87.2397 91.7649 85.9357 91.7649 84.3514V91.5862H105.124V91.6002Z" fill="#B4EBF0"/>
<path id="Vector_32" opacity="0.5" d="M65.2641 91.6554H57.1277L49.6694 84.3925V76.5127L65.2641 91.6554Z" fill="white"/>
<path id="Vector_33" d="M71.3659 79.191L70.0676 77.9291C69.3463 77.5926 68.4518 77.5646 67.5718 78.0693C67.8171 75.4474 65.7109 73.4424 63.2296 73.4424C60.8348 73.4424 58.7719 75.3212 58.8584 77.845C56.1175 76.9757 54.1555 80.2706 56.1175 82.1775C51.6887 83.6357 52.9437 90.0433 57.6322 89.7629C57.4591 90.4219 57.5312 91.0528 57.7765 91.6137H84.234L71.3659 79.191Z" fill="#B4EBF0"/>
<g id="Group_4">
<path id="Vector_34" d="M67.3126 91.0645H59.6523V99.8837H67.3126V91.0645Z" fill="#FFC800"/>
<path id="Vector_35" d="M69.3321 89.7616C69.8514 91.6824 68.7262 92.8742 67.3124 93.2388C65.74 93.6314 63.8502 92.9584 63.5328 91.0655C63.5039 90.8832 63.4751 90.701 63.4751 90.4907C63.4751 90.687 63.4462 90.8832 63.4174 91.0795C63.1289 92.3975 61.9315 93.393 60.4889 93.393C60.1859 93.393 59.8974 93.351 59.6377 93.2808C58.1951 92.8602 57.1997 91.388 57.6181 89.7756C52.9296 90.056 51.6745 83.6484 56.1033 82.1902C54.1414 80.2833 56.1033 76.9884 58.8443 77.8577C58.7577 75.3479 60.8351 73.4551 63.2154 73.4551C65.6967 73.4551 67.7885 75.4741 67.5577 78.082C68.4377 77.5773 69.3321 77.5913 70.0534 77.9418C70.6305 78.2082 71.0777 78.6709 71.3518 79.2037C71.8278 80.1151 71.7845 81.2648 70.8468 82.1902C75.2757 83.6344 74.035 90.028 69.3321 89.7616Z" fill="#006400"/>
<g id="Group_5">
<path id="Vector_36" d="M65.697 78.8116C65.697 79.3725 65.221 79.8352 64.6439 79.8352C64.0669 79.8352 63.5908 79.3865 63.5908 78.8116C63.5908 78.2508 64.0669 77.7881 64.6439 77.7881C65.2354 77.7881 65.697 78.2508 65.697 78.8116Z" fill="#FFD200"/>
<path id="Vector_37" d="M61.3114 82.2325C61.3114 82.9896 60.6767 83.6065 59.8976 83.6065C59.1186 83.6065 58.4839 82.9896 58.4839 82.2325C58.4839 81.4753 59.1186 80.8584 59.8976 80.8584C60.6767 80.8584 61.3114 81.4753 61.3114 82.2325Z" fill="#FFD200"/>
<path id="Vector_38" d="M65.7837 84.0837C65.7837 84.5043 65.423 84.8548 64.9902 84.8548C64.5574 84.8548 64.1968 84.5183 64.1968 84.0837C64.1968 83.663 64.543 83.3125 64.9902 83.3125C65.4374 83.3125 65.7837 83.663 65.7837 84.0837Z" fill="#FFD200"/>
<path id="Vector_39" d="M69.8518 83.214C69.8518 83.6907 69.4479 84.0833 68.9574 84.0833C68.4669 84.0833 68.063 83.6907 68.063 83.214C68.063 82.7373 68.4669 82.3447 68.9574 82.3447C69.4623 82.3447 69.8518 82.7373 69.8518 83.214Z" fill="#FFD200"/>
<path id="Vector_40" d="M67.6735 88.5572C67.6735 89.2863 67.0676 89.8752 66.3175 89.8752C65.5673 89.8752 64.9614 89.2863 64.9614 88.5572C64.9614 87.8281 65.5673 87.2393 66.3175 87.2393C67.0532 87.2393 67.6735 87.8281 67.6735 88.5572Z" fill="#FFD200"/>
<path id="Vector_41" d="M57.9212 85.7941C57.9212 86.2708 57.5172 86.6634 57.0267 86.6634C56.5363 86.6634 56.1323 86.2708 56.1323 85.7941C56.1323 85.3174 56.5363 84.9248 57.0267 84.9248C57.5317 84.9248 57.9212 85.3174 57.9212 85.7941Z" fill="#FFD200"/>
<path id="Vector_42" d="M62.1771 88.1779C62.1771 88.7668 61.6867 89.2435 61.0808 89.2435C60.4749 89.2435 59.9844 88.7668 59.9844 88.1779C59.9844 87.589 60.4749 87.1123 61.0808 87.1123C61.6867 87.1123 62.1771 87.589 62.1771 88.1779Z" fill="#FFD200"/>
</g>
</g>
<g id="Group_6">
<path id="Vector_43" d="M97.6216 83.6506C98.7469 87.913 91.7791 88.6281 91.7791 84.3797C91.7791 85.9781 90.4374 87.268 88.7928 87.268C86.903 87.268 85.4027 85.5434 85.9076 83.6506C81.2191 83.917 79.964 77.5234 84.3929 76.0652C82.4309 74.1583 84.4073 70.8494 87.1483 71.7327C87.0761 69.2229 89.1246 67.3301 91.5194 67.3301C93.9863 67.3301 96.1069 69.3491 95.8617 71.971C96.9292 71.3541 97.9967 71.5084 98.7757 72.0552L99.3816 72.6441C100.132 73.5835 100.262 74.9996 99.1652 76.0652C103.565 77.5094 102.325 83.903 97.6216 83.6506Z" fill="#006400"/>
<path id="Vector_44" d="M91.231 93.3665V75.2373H92.3273V93.2403L91.231 93.3665Z" fill="#3C1E1E"/>
<path id="Vector_45" d="M96.9725 93.2402H86.5713V99.9002H96.9725V93.2402Z" fill="#FFD200"/>
<path id="Vector_46" d="M91.3749 82.5286L86.4556 77.7333L87.2346 76.9902L92.1539 81.7714L91.3749 82.5286Z" fill="#3C1E1E"/>
<path id="Vector_47" d="M96.2068 77.0879L91.3818 81.7773L92.1571 82.5308L96.982 77.8414L96.2068 77.0879Z" fill="#3C1E1E"/>
<path id="Vector_48" d="M96.9725 93.2402H91.7646V99.9002H96.9725V93.2402Z" fill="#FFDC00"/>
</g>
<path id="Vector_49" opacity="0.5" d="M105.239 41.8247V53.8547L84.2197 33.4541H96.6262L105.239 41.8247Z" fill="white"/>
<path id="Vector_50" opacity="0.5" d="M6.13086 33.4541V41.6284L18.7249 53.8547V41.8247L10.1269 33.4541H6.13086Z" fill="white"/>
<path id="Vector_51" opacity="0.5" d="M40.1337 40.2415L36.1665 36.3857H25.3901L29.3573 40.2415H40.1337Z" fill="white"/>
<path id="Vector_52" opacity="0.5" d="M18.7251 91.6H12.1612L6.14551 85.7392V79.3877L18.7251 91.6Z" fill="white"/>
<path id="Vector_53" opacity="0.5" d="M37.335 91.6H30.7711L24.7554 85.7392V79.3877L37.335 91.6Z" fill="white"/>
</g>
</svg>
