<svg width="117" height="126" viewBox="0 0 117 126" fill="none" xmlns="http://www.w3.org/2000/svg">
<g clip-path="url(#clip0_749_616)">
<mask id="mask0_749_616" style="mask-type:luminance" maskUnits="userSpaceOnUse" x="45" y="5" width="20" height="39">
<path d="M48.9646 43.7589H55.3482C55.3482 43.7589 56.55 40.4857 54.9854 38.1755C51.7934 33.4622 56.1462 30.9966 57.8146 29.6914C60.3308 27.7229 61.6893 24.8913 57.9897 23.6585C54.29 22.4257 58.008 16.6943 62.5297 14.1009C66.9544 11.563 64.9948 2.23539 54.9129 6.84965C48.8922 9.60538 49.8351 15.9865 49.5448 19.3222C49.2545 22.6579 44.2919 22.9337 45.9905 27.0086C47.4411 30.4891 50.1979 33.0271 48.0942 35.4202C45.9905 37.8133 45.7727 40.4962 48.9646 43.7589Z" fill="white"/>
</mask>
<g mask="url(#mask0_749_616)">
<path d="M48.9646 43.7589H55.3482C55.3482 43.7589 56.55 40.4857 54.9854 38.1755C51.7934 33.4622 56.1462 30.9966 57.8146 29.6914C60.3308 27.7229 61.4396 25.1797 58.4135 23.5298C54.9902 21.6629 58.0076 16.6943 62.5297 14.1009C66.9544 11.563 64.9948 2.23539 54.9129 6.84965C48.8922 9.60538 49.8351 15.9865 49.5448 19.3222C49.2545 22.6579 44.2919 22.9337 45.9905 27.0086C47.4411 30.4891 50.1979 33.0271 48.0942 35.4202C45.9905 37.8133 45.7727 40.4962 48.9646 43.7589Z" fill="url(#paint0_linear_749_616)"/>
</g>
<mask id="mask1_749_616" style="mask-type:luminance" maskUnits="userSpaceOnUse" x="45" y="5" width="20" height="39">
<path d="M48.9646 43.7589H55.3482C55.3482 43.7589 56.55 40.4857 54.9854 38.1755C51.7934 33.4622 56.1462 30.9966 57.8146 29.6914C60.3308 27.7229 61.6893 24.8913 57.9897 23.6585C54.29 22.4257 58.008 16.6943 62.5297 14.1009C66.9544 11.563 64.9948 2.23539 54.9129 6.84965C48.8922 9.60538 49.8351 15.9865 49.5448 19.3222C49.2545 22.6579 44.2919 22.9337 45.9905 27.0086C47.4411 30.4891 50.1979 33.0271 48.0942 35.4202C45.9905 37.8133 45.7727 40.4962 48.9646 43.7589Z" fill="white"/>
</mask>
<g mask="url(#mask1_749_616)">
<path d="M51.7121 44.3535C51.6969 44.2714 50.2161 36.0296 51.2127 27.415C51.7986 22.3504 53.113 18.1485 55.1202 14.9263C57.6338 10.8911 61.244 8.38982 65.8508 7.49219L65.8827 7.65583C61.3234 8.5443 57.7504 11.0194 55.2625 15.0132C53.2684 18.214 51.9614 22.3919 51.3782 27.4312C50.3842 36.0213 51.8606 44.2418 51.8758 44.3238L51.7121 44.3535Z" fill="#BEB8F2"/>
<path d="M54.1415 16.6675C53.5836 12.1889 55.287 5.84008 55.3044 5.77637L55.4655 5.82001C55.448 5.88328 53.7534 12.2012 54.3069 16.647L54.1415 16.6675Z" fill="#BEB8F2"/>
<path d="M55.9124 14.0393L55.8242 13.898C60.4227 11.034 64.7257 12.413 64.7689 12.4274L64.7165 12.5853C64.6742 12.5714 60.4419 11.2182 55.9124 14.0393Z" fill="#BEB8F2"/>
<path d="M51.034 33.0869L50.8721 33.0485C52.3952 26.628 61.1635 25.0156 61.2482 25.0156L61.2539 25.1819C61.1683 25.1906 52.5261 26.7978 51.034 33.0869Z" fill="#BEB8F2"/>
<path d="M50.9612 30.3958C50.1261 26.3815 45.7545 23.6083 45.7104 23.5808L45.7986 23.4395C45.8432 23.4674 50.2745 26.2772 51.1244 30.3617L50.9612 30.3958Z" fill="#BEB8F2"/>
<path d="M51.6722 43.0297L51.5059 43.0166C51.6111 41.6773 52.6518 40.5052 53.5065 39.7573C54.4267 38.9522 55.3352 38.4521 55.3444 38.4473L55.4242 38.5935C55.3889 38.6127 51.866 40.5663 51.6722 43.0297Z" fill="#BEB8F2"/>
<path d="M51.2649 41.0881C50.9449 39.2156 48.0593 37.09 47.1116 36.3914C46.913 36.2452 46.8431 36.1928 46.8174 36.164L46.9418 36.0532L46.8794 36.1086L46.9414 36.0527C46.9601 36.0728 47.0763 36.1579 47.2103 36.257C48.172 36.9652 51.0981 39.1213 51.429 41.0602L51.2649 41.0881Z" fill="#BEB8F2"/>
</g>
<path d="M43.652 57.5439C41.9875 60.1674 42.8514 63.1261 43.7865 65.1644C44.0685 65.2032 44.2222 65.3036 44.4985 65.4105C46.9907 66.3771 49.6667 66.8636 52.2597 67.3991C52.8176 67.5143 53.3655 67.5413 53.9317 67.6142L54.5088 67.6731C54.5088 67.6731 58.239 59.7699 55.0099 57.4326C51.7808 55.0954 54.0076 48.5056 54.7873 44.8545C56.9028 34.9478 45.96 34.4268 47.6608 21.4794C48.113 18.036 50.1277 11.6199 47.5866 8.49325C44.6914 4.93153 41.8705 7.67679 40.089 4.78273C37.3039 0.259233 32.1021 -1.91873 28.3299 1.85856C24.6067 5.58654 27.3713 14.3534 36.0816 22.2575C41.6876 28.6356 41.5676 30.3069 40.5343 34.2797C39.8105 37.0625 36.1357 44.0751 39.5879 47.5255C43.0396 50.9764 45.5545 54.5447 43.652 57.5439Z" fill="url(#paint1_linear_749_616)"/>
<mask id="mask2_749_616" style="mask-type:luminance" maskUnits="userSpaceOnUse" x="26" y="-1" width="31" height="69">
<path d="M45.155 67.6731H54.5088C54.5088 67.6731 58.239 59.7699 55.0099 57.4326C51.7808 55.0954 54.0076 48.5056 54.7873 44.8545C56.9028 34.9478 45.96 34.4268 47.6608 21.4794C48.113 18.036 50.1277 11.6199 47.5866 8.49325C44.6914 4.93153 41.8705 7.67679 40.089 4.78273C37.3039 0.259233 32.1021 -1.91873 28.3299 1.85856C24.6067 5.58654 27.3713 14.3534 36.0816 22.2575C41.6876 28.6356 41.5676 30.3069 40.5338 34.2797C39.8101 37.0625 36.1353 44.0751 39.5874 47.5255C43.0391 50.976 45.5545 54.5442 43.6516 57.5435C40.7569 62.1075 45.155 67.6731 45.155 67.6731Z" fill="white"/>
</mask>
<g mask="url(#mask2_749_616)">
<path d="M49.6376 66.6794L49.4699 66.6781C49.4787 65.5164 49.473 64.3508 49.4534 63.2136C49.308 54.7514 48.3773 46.6095 46.6879 39.013C45.2565 32.5786 43.2615 26.4453 40.7588 20.7829C38.7468 16.2314 36.3964 11.958 33.7733 8.08163C31.9298 5.35776 29.9723 2.85731 27.9551 0.649677C27.6063 0.267846 27.2261 -0.104821 26.8589 -0.465269C26.363 -0.951831 25.8501 -1.45498 25.4009 -1.99172L25.5288 -2.09863C25.9727 -1.568 26.4826 -1.06791 26.9755 -0.583964C27.3444 -0.22177 27.7259 0.152206 28.0782 0.537528C30.1011 2.75084 32.0633 5.25783 33.9112 7.98868C36.5401 11.8729 38.8948 16.1551 40.9111 20.7161C43.4186 26.3881 45.4171 32.5323 46.8507 38.9772C48.5432 46.5841 49.4747 54.7379 49.6205 63.211C49.6406 64.3495 49.6459 65.5164 49.6376 66.6794Z" fill="#FCFDFE"/>
<path d="M43.5243 27.8118C40.9841 19.8069 45.9174 6.33547 45.9676 6.2002L46.1248 6.25823C46.075 6.39264 41.1609 19.8113 43.6841 27.7608L43.5243 27.8118Z" fill="#FCFDFE"/>
<path d="M48.6291 50.6573C47.5635 45.1384 38.1381 39.7116 38.043 39.657L38.1259 39.5117C38.2215 39.5663 47.7132 45.031 48.7936 50.625L48.6291 50.6573Z" fill="#FCFDFE"/>
<path d="M48.9687 53.8908C48.9202 50.1327 50.8545 44.9943 54.4154 39.4227C54.497 39.2948 54.5616 39.194 54.5708 39.1748L54.6336 39.2049H54.7319C54.7319 39.2376 54.7319 39.2376 54.5559 39.5126C51.0125 45.0572 49.0874 50.1624 49.1354 53.8886L48.9687 53.8908Z" fill="#FCFDFE"/>
<path d="M49.455 64.5621C48.2558 60.7307 42.6755 58.5335 42.6196 58.5117L42.6799 58.3555C42.7371 58.3777 48.392 60.6041 49.6147 64.5119L49.455 64.5621Z" fill="#FCFDFE"/>
<path d="M49.7333 66.7281L49.5762 66.6701C50.7356 63.5408 52.8284 60.645 55.975 57.8164L56.0867 57.9408C52.9611 60.7506 50.8827 63.625 49.7333 66.7281Z" fill="#FCFDFE"/>
<path d="M35.285 10.3986C33.6296 6.0401 32.9023 1.08459 32.6631 -0.543971C32.6212 -0.829799 32.588 -1.05584 32.5767 -1.09075L32.7356 -1.14355C32.7508 -1.0973 32.774 -0.943257 32.829 -0.568408C33.0673 1.05535 33.7929 5.99734 35.4417 10.3389L35.285 10.3986Z" fill="#FCFDFE"/>
<path d="M39.007 17.0536C36.3773 13.6791 27.5295 12.6113 27.4404 12.6008L27.4601 12.4346C27.4823 12.4372 29.731 12.7038 32.2777 13.3885C35.7072 14.3101 38.0156 15.5089 39.1393 16.9506L39.007 17.0536Z" fill="#FCFDFE"/>
</g>
<path d="M33.8394 42.0706C33.8765 42.0867 33.9127 42.1046 33.9507 42.119C36.6236 43.1498 39.4607 43.6682 42.2253 44.2394C42.5977 44.3162 42.9726 44.3808 43.3485 44.4375C43.8475 43.0424 44.2299 40.9853 42.4401 40.435C39.6602 39.5802 39.6309 34.6805 40.4084 32.9533C41.3705 30.8155 43.5091 25.7924 39.2324 24.403C35.6719 23.2461 33.1378 23.2273 32.9239 18.6314C32.71 14.0355 30.2244 11.1497 26.0545 11.3902C21.6664 11.6433 18.1156 5.77877 14.5072 7.70276C8.2197 11.055 13.8122 21.2231 21.4036 24.2157C28.9951 27.2084 24.6057 29.9166 24.3708 33.6747C24.0499 38.8047 30.9997 37.7627 32.8174 39.7936C33.4329 40.4817 33.7285 41.279 33.8394 42.0706Z" fill="url(#paint2_linear_749_616)"/>
<mask id="mask3_749_616" style="mask-type:luminance" maskUnits="userSpaceOnUse" x="11" y="7" width="33" height="38">
<path d="M33.614 44.8965H43.1712C43.7278 43.5441 44.4389 41.0494 42.4391 40.4341C39.6592 39.5792 39.63 34.6795 40.4074 32.9524C41.3696 30.8145 43.5082 25.7914 39.2314 24.402C35.671 23.2451 33.1369 23.2264 32.923 18.6304C32.7091 14.0345 30.2234 11.1487 26.0536 11.3892C21.6655 11.6423 18.1147 5.77779 14.5062 7.70178C8.21873 11.054 13.8112 21.2221 21.4027 24.2148C28.9941 27.2074 24.6047 29.9156 24.3698 33.6737C24.049 38.8038 30.9987 37.7617 32.8164 39.7926C34.2413 41.3849 33.9576 43.5642 33.614 44.8965Z" fill="white"/>
</mask>
<g mask="url(#mask3_749_616)">
<path d="M38.1334 43.3903C36.7038 36.1312 33.5227 29.0824 28.9338 23.0062C24.3187 16.8956 18.4018 11.9345 11.8228 8.65944L11.8974 8.50977C18.4996 11.7966 24.4366 16.7743 29.067 22.9054C33.6711 29.0021 36.8627 36.074 38.2972 43.3581L38.1334 43.3903Z" fill="#FCFDFE"/>
<path d="M36.0133 35.4351L35.8457 35.4346C35.8723 29.4017 41.0484 24.7342 41.1008 24.6875L41.2116 24.8127C41.1601 24.8586 36.0395 29.4781 36.0133 35.4351Z" fill="#FCFDFE"/>
<path d="M37.5194 40.6675C34.7269 35.4384 23.8723 34.6468 23.7632 34.6394L23.7745 34.4727C23.8845 34.4801 34.8317 35.2786 37.6674 40.5885L37.5194 40.6675Z" fill="#FCFDFE"/>
<path d="M28.5458 22.5099C26.6294 18.0392 29.556 11.2248 29.5861 11.1562L29.7393 11.223C29.7101 11.2907 26.8119 18.0401 28.6999 22.444L28.5458 22.5099Z" fill="#FCFDFE"/>
<path d="M21.9626 15.4869C17.3942 12.6527 10.2655 14.1813 10.1939 14.1974L10.1577 14.0342C10.2297 14.0181 17.4239 12.4746 22.0504 15.3451L21.9626 15.4869Z" fill="#FCFDFE"/>
</g>
<path d="M49.5479 52.24L49.6024 52.5075C44.9686 52.4752 39.3603 50.2427 39.3062 50.2204C39.266 50.2039 39.3612 49.9154 39.3778 49.8753C39.3944 49.8351 39.4406 49.8155 39.4808 49.8321C39.5349 49.8543 44.9458 52.0506 49.5487 52.0825C49.5924 52.0829 49.6273 52.1183 49.6269 52.1619C49.6264 52.2051 49.5911 52.24 49.5479 52.24Z" fill="#D8DEE8"/>
<path d="M35.2053 120.841L0.322266 118.447V29.8932L35.2053 27.5625V120.841Z" fill="url(#paint3_linear_749_616)"/>
<path opacity="0.61" d="M3.01855 114.576V33.7693L35.2051 31.8174V116.586L3.01855 114.576Z" fill="white"/>
<mask id="mask4_749_616" style="mask-type:luminance" maskUnits="userSpaceOnUse" x="3" y="31" width="33" height="86">
<path d="M3.01855 114.576V33.7693L35.2051 31.8174V116.586L3.01855 114.576Z" fill="white"/>
</mask>
<g mask="url(#mask4_749_616)">
<path d="M130.703 52.8039L96.089 53.7207C95.9738 36.5754 95.8786 12.0767 96.0663 9.80319C96.0567 9.91883 95.9926 10.5311 95.6599 11.2219L91.0741 7.64355C90.5825 8.67428 90.5677 9.53613 90.5275 11.8398C90.5048 13.1467 90.4891 15.0231 90.4808 17.4162C90.4664 21.4213 90.4721 26.9494 90.497 33.8468C90.5393 45.581 90.6249 57.3828 90.6257 57.5006L90.6519 61.0663L102.526 60.8664V86.5516L80.1322 86.1672L66.7527 62.0132L48.3735 62.3082L73.0589 22.0004L69.1545 17.6973L42.0161 62.4112L30.3383 62.5988C30.3549 58.5436 30.3815 51.3346 30.3976 44.1557C30.412 37.8147 30.4151 32.7379 30.4068 29.0667C30.3906 21.746 30.3605 21.6622 30.1951 21.1983L28.0137 22.9342C27.9268 22.689 27.9076 22.4817 27.9046 22.4424C28.0189 23.9654 27.9679 46.1989 27.8998 62.6377L15.7054 62.8336C13.4909 51.0152 8.31264 23.4003 8.13846 22.6371L4.0769 24.9621L4.06686 24.9167C4.28818 25.9845 8.86487 50.5373 11.922 66.9665L12.362 69.3313L37.9149 69.1681L22.0396 95.3246L-9.11621 94.3218V100.558L24.0966 101.949L44.1967 69.1284L64.2081 69.0005L73.5714 86.055L48.8323 85.6304V134.076L51.4236 134.299V89.3043L75.6516 89.845L100.085 134.348L104.583 130.31L82.2498 89.992L105.53 90.5113V60.8167L130.702 60.3934V52.8039H130.703Z" fill="white"/>
</g>
<path d="M58.9976 115.752H99.6813V32.7734H58.9976V115.752Z" fill="url(#paint4_linear_749_616)"/>
<path opacity="0.33" d="M96.3823 111.96L96.3823 36.5059L58.9975 36.5059L58.9975 111.96H96.3823Z" fill="white"/>
<mask id="mask5_749_616" style="mask-type:luminance" maskUnits="userSpaceOnUse" x="58" y="36" width="39" height="76">
<path d="M96.3823 111.96L96.3823 36.5059L58.9975 36.5059L58.9975 111.96H96.3823Z" fill="white"/>
</mask>
<g mask="url(#mask5_749_616)">
<path d="M111.174 57.4377H80.25C80.1421 43.4112 80.0531 23.3661 80.2286 21.5194C80.2198 21.6132 80.1596 22.1094 79.8483 22.6522L75.531 19.3916C75.0647 20.205 75.0508 20.9141 75.0128 22.8093C74.9914 23.885 74.9766 25.4298 74.9683 27.4009C74.9547 30.7003 74.96 35.2557 74.9835 40.94C75.0237 50.6097 75.1049 60.3352 75.1058 60.4325L75.1307 63.3702H86.2153V84.1972H65.0112L51.7133 63.8345H32.62L58.0419 30.1592L54.1366 26.2737L25.7811 63.8345H12.8871C12.9054 60.1995 12.9355 53.7381 12.9538 47.3032C12.97 41.6198 12.9735 37.0693 12.9643 33.7786C12.946 27.2154 12.9124 27.1386 12.7264 26.711L10.2678 28.1222C10.1692 27.8957 10.1478 27.7081 10.1443 27.6727C10.2735 29.0504 10.2159 49.0474 10.1386 63.8345H-3.90576C-6.51147 52.9395 -10.2631 37.2246 -10.4718 36.5055L-14.7568 38.5896L-14.3674 42.5934C-14.099 43.604 -12.0106 52.353 -8.36807 67.5865L-7.84641 69.7675H21.3022L3.45255 93.4118H-10.4041L-10.1623 99.3448H5.81249L28.1411 69.7675H49.1286L58.5522 84.1977H33.1098V126.483H35.8587V87.3536H60.6131L83.9658 123.113L88.1007 119.554L67.0721 87.3536H88.9642V63.3707H111.174V57.4377Z" fill="white"/>
</g>
<path d="M58.9974 115.752L35.2051 120.841V27.5625L58.9974 32.7737V115.752Z" fill="url(#paint5_linear_749_616)"/>
<path opacity="0.33" d="M35.2051 116.586V31.8174L58.9974 36.5591V111.968L35.2051 116.586Z" fill="white"/>
<mask id="mask6_749_616" style="mask-type:luminance" maskUnits="userSpaceOnUse" x="35" y="31" width="24" height="86">
<path d="M35.2051 116.586V31.8174L58.9974 36.5591V111.968L35.2051 116.586Z" fill="white"/>
</mask>
<g mask="url(#mask6_749_616)">
<path d="M82.7747 59.6212L69.451 58.4199C69.4008 45.1579 69.3594 26.2017 69.441 24.478C69.4371 24.5657 69.4087 25.0269 69.2642 25.5004L67.2295 21.8296C67.0073 22.5444 67.0003 23.2216 66.9824 25.0317C66.9719 26.059 66.9649 27.537 66.961 29.4243C66.9545 32.5832 66.9571 36.947 66.9684 42.3943C66.9876 51.6591 67.0265 60.9762 67.0269 61.0691L67.0387 63.8829L72.1833 64.1875V83.5701L62.0757 84.0693L55.1312 63.6512L44.2164 63.0311L58.4991 30.0998L56.4347 25.685L40.0047 62.792L31.5773 62.3132C31.5899 58.1615 31.6104 50.7828 31.6227 43.4351C31.6336 36.9457 31.6358 31.7493 31.6297 27.9895C31.6174 20.4908 31.5943 20.3974 31.4681 19.8772L29.7822 21.0808C29.7141 20.8037 29.6993 20.5833 29.6971 20.5418C29.7866 22.1508 29.7464 45.1758 29.6932 62.2059L19.5353 61.629C17.5469 48.2732 12.7074 15.7849 12.5402 14.8506L8.53713 16.2121L8.52709 16.1554C8.74973 17.4837 13.2369 47.0575 16.1094 66.0233L16.5149 68.7014L37.1514 69.2351L24.9707 96.7448L-5.84424 99.7466V107.682L26.6601 103.51L41.4767 69.3472L53.7212 69.664L58.7645 84.2334L44.5106 84.9373V130.391L46.152 129.948V88.2215L59.8336 87.3208L71.1618 120.045L73.0289 116.278L63.1072 87.1056L73.4139 86.4271V64.2617L82.7738 64.8159V59.6212H82.7747Z" fill="#D8DEE8"/>
</g>
<path d="M115.499 46.1121C115.499 60.4013 95.4736 86.4753 86.411 97.544C84.1559 100.298 79.9398 100.298 77.6846 97.544C68.622 86.4757 48.5962 60.4013 48.5962 46.1121C48.5962 27.6441 63.573 12.6729 82.0478 12.6729C100.523 12.6729 115.499 27.6441 115.499 46.1121Z" fill="url(#paint6_linear_749_616)"/>
<path d="M82.048 120.648C85.8242 120.648 88.8855 117.587 88.8855 113.813C88.8855 110.038 85.8242 106.978 82.048 106.978C78.2717 106.978 75.2104 110.038 75.2104 113.813C75.2104 117.587 78.2717 120.648 82.048 120.648Z" fill="url(#paint7_linear_749_616)"/>
<path d="M114.594 46.1121C114.594 60.4013 94.5683 86.4753 85.5057 97.544C83.2506 100.298 79.0345 100.298 76.7793 97.544C67.7167 86.4757 47.6909 60.4013 47.6909 46.1121C47.6909 27.6441 62.6677 12.6729 81.1425 12.6729C99.6173 12.6729 114.594 27.6441 114.594 46.1121Z" fill="url(#paint8_linear_749_616)"/>
<path d="M80.995 83.8134C83.1175 69.8419 92.3468 65.3703 90.7626 52.1777C88.9357 36.9634 75.4597 32.9112 75.1345 19.3704C75.0821 17.1902 75.379 15.0882 75.9386 13.0752C59.9359 15.5743 47.6914 29.4128 47.6914 46.1108C47.6914 60.4 67.7172 86.474 76.7798 97.5427C78.1073 99.1639 80.1137 99.8298 81.9999 99.5427C80.3782 93.4233 80.3289 88.1977 80.995 83.8134Z" fill="url(#paint9_linear_749_616)"/>
<path d="M81.1427 64.7609C91.4464 64.7609 99.7991 56.4112 99.7991 46.1114C99.7991 35.8116 91.4464 27.4619 81.1427 27.4619C70.8391 27.4619 62.4863 35.8116 62.4863 46.1114C62.4863 56.4112 70.8391 64.7609 81.1427 64.7609Z" fill="white"/>
<path d="M81.1427 120.648C84.919 120.648 87.9802 117.587 87.9802 113.813C87.9802 110.038 84.919 106.978 81.1427 106.978C77.3664 106.978 74.3052 110.038 74.3052 113.813C74.3052 117.587 77.3664 120.648 81.1427 120.648Z" fill="url(#paint10_linear_749_616)"/>
<path d="M69.74 45.6936C70.5533 45.6936 71.212 45.0347 71.212 44.2217H68.2676C68.2676 45.0342 68.9268 45.6936 69.74 45.6936Z" fill="url(#paint11_linear_749_616)"/>
<path d="M93.0334 34.9824H69.7536L68.2676 43.175H94.6398L93.0334 34.9824Z" fill="url(#paint12_linear_749_616)"/>
<path d="M73.0906 45.6936C73.9039 45.6936 74.5626 45.0347 74.5626 44.2217H71.6182C71.6186 45.0342 72.2773 45.6936 73.0906 45.6936Z" fill="url(#paint13_linear_749_616)"/>
<path d="M76.4412 45.6936C77.2545 45.6936 77.9132 45.0347 77.9132 44.2217H74.9688C74.9692 45.0342 75.6284 45.6936 76.4412 45.6936Z" fill="url(#paint14_linear_749_616)"/>
<path d="M79.7918 45.6936C80.6051 45.6936 81.2638 45.0347 81.2638 44.2217H78.3193C78.3193 45.0342 78.9785 45.6936 79.7918 45.6936Z" fill="url(#paint15_linear_749_616)"/>
<path d="M93.1917 45.6936C92.3785 45.6936 91.7197 45.0347 91.7197 44.2217H94.6642C94.6642 45.0342 94.005 45.6936 93.1917 45.6936Z" fill="url(#paint16_linear_749_616)"/>
<path d="M89.8421 45.6936C89.0289 45.6936 88.3701 45.0347 88.3701 44.2217H91.3146C91.3141 45.0342 90.6554 45.6936 89.8421 45.6936Z" fill="url(#paint17_linear_749_616)"/>
<path d="M86.4915 45.6936C85.6783 45.6936 85.0195 45.0347 85.0195 44.2217H87.964C87.9636 45.0342 87.3044 45.6936 86.4915 45.6936Z" fill="url(#paint18_linear_749_616)"/>
<path d="M83.141 45.6936C82.3277 45.6936 81.6689 45.0347 81.6689 44.2217H84.6134C84.613 45.0342 83.9538 45.6936 83.141 45.6936Z" fill="url(#paint19_linear_749_616)"/>
<path d="M69.7466 46.2598V57.1478H93.1848V46.2598H69.7466ZM89.7611 54.6112H73.1708V48.5857H89.7606V54.6112H89.7611Z" fill="url(#paint20_linear_749_616)"/>
<path d="M32.5637 54.5807C32.5637 57.0816 29.0587 61.6456 27.4723 63.5832C27.0777 64.0654 26.3395 64.0654 25.9449 63.5832C24.3585 61.6456 20.8535 57.082 20.8535 54.5807C20.8535 51.348 23.4749 48.7275 26.7088 48.7275C29.9427 48.7275 32.5637 51.348 32.5637 54.5807Z" fill="url(#paint21_linear_749_616)"/>
<path d="M26.7087 57.8446C28.5121 57.8446 29.974 56.3832 29.974 54.5805C29.974 52.7778 28.5121 51.3164 26.7087 51.3164C24.9053 51.3164 23.4434 52.7778 23.4434 54.5805C23.4434 56.3832 24.9053 57.8446 26.7087 57.8446Z" fill="white"/>
<path d="M26.7088 67.6276C27.3696 67.6276 27.9053 67.0921 27.9053 66.4315C27.9053 65.7709 27.3696 65.2354 26.7088 65.2354C26.0479 65.2354 25.5122 65.7709 25.5122 66.4315C25.5122 67.0921 26.0479 67.6276 26.7088 67.6276Z" fill="url(#paint22_linear_749_616)"/>
<path d="M24.8865 54.6378C25.0174 54.6378 25.1239 54.5317 25.1239 54.4004H24.6494C24.6494 54.5317 24.7555 54.6378 24.8865 54.6378Z" fill="url(#paint23_linear_749_616)"/>
<path d="M28.642 52.9111H24.8886L24.6494 54.2321H28.9009L28.642 52.9111Z" fill="url(#paint24_linear_749_616)"/>
<path d="M25.4275 54.6378C25.5584 54.6378 25.6649 54.5317 25.6649 54.4004H25.1904C25.19 54.5317 25.2965 54.6378 25.4275 54.6378Z" fill="url(#paint25_linear_749_616)"/>
<path d="M25.9675 54.6378C26.0985 54.6378 26.205 54.5317 26.205 54.4004H25.7305C25.73 54.5317 25.8365 54.6378 25.9675 54.6378Z" fill="url(#paint26_linear_749_616)"/>
<path d="M26.508 54.6378C26.639 54.6378 26.7455 54.5317 26.7455 54.4004H26.271C26.2706 54.5317 26.3766 54.6378 26.508 54.6378Z" fill="url(#paint27_linear_749_616)"/>
<path d="M28.6672 54.6378C28.5362 54.6378 28.4297 54.5317 28.4297 54.4004H28.9042C28.9046 54.5317 28.7986 54.6378 28.6672 54.6378Z" fill="url(#paint28_linear_749_616)"/>
<path d="M28.1271 54.6378C27.9962 54.6378 27.8896 54.5317 27.8896 54.4004H28.3642C28.3646 54.5317 28.2581 54.6378 28.1271 54.6378Z" fill="url(#paint29_linear_749_616)"/>
<path d="M27.5871 54.6378C27.4561 54.6378 27.3496 54.5317 27.3496 54.4004H27.8241C27.8241 54.5317 27.718 54.6378 27.5871 54.6378Z" fill="url(#paint30_linear_749_616)"/>
<path d="M27.047 54.6378C26.9161 54.6378 26.8096 54.5317 26.8096 54.4004H27.2841C27.2845 54.5317 27.178 54.6378 27.047 54.6378Z" fill="url(#paint31_linear_749_616)"/>
<path d="M24.8877 54.7295V56.4846H28.6664V54.7295H24.8877ZM28.1142 56.0757H25.4399V55.1043H28.1146V56.0757H28.1142Z" fill="url(#paint32_linear_749_616)"/>
<g opacity="0.3">
<path d="M26.6831 61.1792C27.0546 58.7337 28.6702 57.9509 28.3926 55.642C28.0726 52.9792 25.714 52.2697 25.6572 49.8997C25.648 49.5183 25.7 49.15 25.7978 48.7979C22.9969 49.2351 20.8535 51.6574 20.8535 54.5803C20.8535 57.0812 24.3585 61.6453 25.9449 63.5828C26.1771 63.8664 26.5285 63.9829 26.8586 63.9328C26.5748 62.8614 26.5665 61.9468 26.6831 61.1792Z" fill="url(#paint33_linear_749_616)"/>
</g>
<path d="M19.7141 86.775C19.7141 89.2759 16.2091 93.84 14.6227 95.7775C14.2281 96.2597 13.4899 96.2597 13.0953 95.7775C11.5089 93.84 8.00391 89.2763 8.00391 86.775C8.00391 83.5423 10.6253 80.9219 13.8592 80.9219C17.0927 80.9219 19.7141 83.5423 19.7141 86.775Z" fill="url(#paint34_linear_749_616)"/>
<path d="M13.8581 90.039C15.6615 90.039 17.1234 88.5776 17.1234 86.7749C17.1234 84.9721 15.6615 83.5107 13.8581 83.5107C12.0547 83.5107 10.5928 84.9721 10.5928 86.7749C10.5928 88.5776 12.0547 90.039 13.8581 90.039Z" fill="white"/>
<path d="M13.8582 99.8219C14.519 99.8219 15.0547 99.2864 15.0547 98.6258C15.0547 97.9652 14.519 97.4297 13.8582 97.4297C13.1973 97.4297 12.6616 97.9652 12.6616 98.6258C12.6616 99.2864 13.1973 99.8219 13.8582 99.8219Z" fill="url(#paint35_linear_749_616)"/>
<path d="M12.0368 86.8321C12.1678 86.8321 12.2743 86.7261 12.2743 86.5947H11.7998C11.7994 86.7261 11.9059 86.8321 12.0368 86.8321Z" fill="url(#paint36_linear_749_616)"/>
<path d="M15.7914 85.1055H12.0385L11.7988 86.4264H16.0507L15.7914 85.1055Z" fill="url(#paint37_linear_749_616)"/>
<path d="M12.5764 86.8321C12.7074 86.8321 12.8139 86.7261 12.8139 86.5947H12.3394C12.3394 86.7261 12.4454 86.8321 12.5764 86.8321Z" fill="url(#paint38_linear_749_616)"/>
<path d="M13.1174 86.8321C13.2484 86.8321 13.3549 86.7261 13.3549 86.5947H12.8804C12.8799 86.7261 12.9865 86.8321 13.1174 86.8321Z" fill="url(#paint39_linear_749_616)"/>
<path d="M13.6575 86.8321C13.7884 86.8321 13.8949 86.7261 13.8949 86.5947H13.4204C13.42 86.7261 13.5265 86.8321 13.6575 86.8321Z" fill="url(#paint40_linear_749_616)"/>
<path d="M15.8171 86.8321C15.6861 86.8321 15.5796 86.7261 15.5796 86.5947H16.0541C16.0545 86.7261 15.948 86.8321 15.8171 86.8321Z" fill="url(#paint41_linear_749_616)"/>
<path d="M15.277 86.8321C15.1461 86.8321 15.0396 86.7261 15.0396 86.5947H15.5141C15.5141 86.7261 15.408 86.8321 15.277 86.8321Z" fill="url(#paint42_linear_749_616)"/>
<path d="M14.7365 86.8321C14.6055 86.8321 14.499 86.7261 14.499 86.5947H14.9735C14.974 86.7261 14.8675 86.8321 14.7365 86.8321Z" fill="url(#paint43_linear_749_616)"/>
<path d="M14.197 86.8321C14.066 86.8321 13.9595 86.7261 13.9595 86.5947H14.434C14.434 86.7261 14.3279 86.8321 14.197 86.8321Z" fill="url(#paint44_linear_749_616)"/>
<path d="M12.0376 86.9238V88.6789H15.8163V86.9238H12.0376ZM15.2641 88.27H12.5894V87.2987H15.2641V88.27Z" fill="url(#paint45_linear_749_616)"/>
<g opacity="0.3">
<path d="M13.8325 93.3735C14.204 90.9281 15.8196 90.1452 15.542 87.8363C15.222 85.1736 12.8634 84.464 12.8066 82.094C12.7974 81.7126 12.8494 81.3443 12.9472 80.9922C10.1463 81.4294 8.00293 83.8518 8.00293 86.7746C8.00293 89.2755 11.5079 93.8396 13.0943 95.7771C13.3265 96.0608 13.6779 96.1773 14.008 96.1271C13.7247 95.0558 13.7159 94.1411 13.8325 93.3735Z" fill="url(#paint46_linear_749_616)"/>
</g>
<path d="M30.574 72.3789C30.574 72.3789 30.1248 70.0338 29.6756 69.3352C29.2264 68.6365 28.3883 68.1875 28.3883 68.1875C28.3883 68.1875 28.2137 68.4746 28.7698 69.0795C29.326 69.6843 28.8624 69.7441 28.7698 69.9387C28.6773 70.1333 28.8768 70.8319 29.2762 71.0811C29.6756 71.3307 29.8254 72.6909 29.8254 72.6909L30.574 72.3789Z" fill="url(#paint47_linear_749_616)"/>
<path d="M29.2764 72.0797C29.7587 71.9963 30.2416 71.9134 30.7239 71.8301C32.4509 75.0305 34.4743 77.0876 35.852 78.2819C37.4798 79.6932 38.531 80.6039 40.258 81.0608C42.8091 81.7359 45.0132 80.9434 45.2996 81.6595C45.4397 82.0095 44.9538 82.3887 44.1764 83.3186C41.9125 86.0263 42.1264 87.4821 40.8818 87.884C39.8537 88.2161 38.8187 87.5017 37.0634 86.2498C35.4665 85.1108 33.4645 83.683 31.7725 80.9609C29.5029 77.3101 29.2755 73.7174 29.2764 72.0797Z" fill="url(#paint48_linear_749_616)"/>
<path d="M50.5401 81.9512C50.7745 82.0398 54.3524 83.4619 55.0875 87.1947C55.1469 87.4962 55.7218 90.7032 53.5461 92.9684C51.1067 95.5086 46.4091 95.4457 44.5442 93.3219C44.1094 92.8266 43.8798 92.2776 43.7515 91.8164L44.2426 90.5116C44.8419 89.7881 45.6583 89.6166 46.0944 89.5092C47.1691 89.2444 47.9802 89.7231 48.5957 89.2051C48.9362 88.9184 49.0039 88.506 49.0646 88.1373C49.2702 86.8822 48.5617 86.1094 48.5102 85.3357C48.4718 84.7571 48.2692 83.4894 49.0244 82.6625C49.5029 82.1392 50.1655 81.997 50.5401 81.9512Z" fill="url(#paint49_linear_749_616)"/>
<path d="M51.9341 123.55C51.976 123.32 52.7181 123.112 53.0856 123.42C53.2681 123.572 53.3938 123.882 53.2882 124.022C53.2498 124.073 53.4069 124.163 53.2563 124.164C52.7565 124.17 51.8926 123.778 51.9341 123.55Z" fill="url(#paint50_linear_749_616)"/>
<path d="M52.7116 123.633L53.4751 123.525C53.1215 123.1 53.187 121.744 53.187 121.744L52.375 121.925C52.375 121.925 52.4676 122.297 52.6247 122.846C52.6788 123.034 52.7028 123.328 52.7116 123.633Z" fill="url(#paint51_linear_749_616)"/>
<path d="M52.6441 123.539C52.6441 123.539 53.5634 123.327 53.6625 123.509C53.7621 123.692 53.8393 124.18 53.2561 124.164C52.6729 124.149 52.5921 123.694 52.6441 123.539Z" fill="url(#paint52_linear_749_616)"/>
<path d="M41.4583 124.41C41.5316 124.189 42.296 124.086 42.6168 124.443C42.7762 124.619 42.8574 124.944 42.733 125.067C42.688 125.112 42.8312 125.223 42.6815 125.204C42.1855 125.139 41.3854 124.63 41.4583 124.41Z" fill="url(#paint53_linear_749_616)"/>
<path d="M42.2169 124.603H42.9878C42.697 124.132 42.952 122.799 42.952 122.799L42.1226 122.865C42.1226 122.865 42.1619 123.246 42.2409 123.812C42.2684 124.005 42.2509 124.3 42.2169 124.603Z" fill="url(#paint54_linear_749_616)"/>
<path d="M40.2188 95.4559C39.8617 96.635 39.3514 98.5381 39.0231 100.926C38.0868 107.736 40.0774 107.953 39.7054 115.499C39.5867 117.908 41.793 123.463 41.9877 123.585C42.082 123.594 42.1837 123.601 42.2928 123.597C42.4849 123.591 42.7551 123.562 43.0699 123.467C43.4195 123.407 44.6794 119.996 44.3873 117.967C44.1809 116.531 44.2407 114.99 44.3603 111.909C44.3799 111.409 45.6577 102.194 45.6577 102.194C46.0466 105.605 46.4936 108.503 46.8813 110.75C48.1267 117.97 52.1756 122.339 52.3865 122.409C52.4284 122.426 52.8082 122.564 53.1186 122.36C53.257 122.268 53.3037 122.151 53.3037 122.151C53.4119 122.066 53.2718 114.943 52.0368 109.582C50.2444 101.801 51.0249 99.9807 50.457 96.5054C49.9659 93.4992 40.2188 95.4559 40.2188 95.4559Z" fill="url(#paint55_linear_749_616)"/>
<path d="M47.4592 81.3434C46.2692 81.3085 43.5334 80.8883 42.0269 82.2437C42.0007 82.2673 42.3094 82.4322 42.1575 82.6102C42.0165 82.7756 41.5323 83.3538 41.0936 84.1363C40.7758 84.7027 40.489 85.3629 40.1996 86.347C39.6893 88.0824 39.5426 89.56 39.4937 90.2041C39.2182 93.8247 39.4915 95.4952 39.739 96.6311C40.8151 97.1835 43.5876 98.1724 46.8913 97.681C48.4 97.4567 49.6074 96.9549 50.457 96.5067C49.5996 93.912 50.2723 92.5239 50.5897 91.244C51.0419 89.4191 51.0493 89.5574 51.4217 88.1077C52.0364 85.7159 52.1372 83.2722 51.7151 82.7721C50.5766 81.4237 48.5248 81.3749 47.4592 81.3434Z" fill="url(#paint56_linear_749_616)"/>
<path d="M42.1634 124.5C42.1634 124.5 43.1033 124.419 43.1762 124.614C43.2491 124.808 43.2574 125.302 42.6821 125.205C42.1067 125.108 42.0905 124.646 42.1634 124.5Z" fill="url(#paint57_linear_749_616)"/>
<path d="M44.9591 79.1133C44.7635 78.4164 45.1058 77.771 45.1808 77.6318C45.4965 77.0497 45.5777 76.9703 45.7283 76.869L45.9378 76.7399C45.9378 76.7399 45.95 76.7351 45.9627 76.7303C46.0971 76.6823 46.5551 76.6687 46.648 76.6884C46.9445 76.7516 47.2601 77.9587 47.1701 79.6653C47.1824 79.7304 47.1942 79.7958 47.2055 79.8622C47.2522 80.1318 47.2893 80.3958 47.3181 80.6542C47.3456 80.9012 47.5098 81.1119 47.7424 81.1997C49.3175 81.794 49.3144 81.3192 49.4773 81.8307C49.5659 82.1091 47.7774 82.5594 46.8973 82.4573C44.9176 82.4721 43.3068 82.2614 43.4801 81.9498C43.5569 81.8115 45.0909 81.4109 45.5222 81.0138C45.9173 80.6503 45.885 80.2745 45.9177 80.0057C45.7977 79.9438 45.1031 79.6269 44.9591 79.1133Z" fill="url(#paint58_linear_749_616)"/>
<path d="M45.3233 76.2563C45.325 76.7851 45.5743 77.3494 45.7013 77.4401C45.7179 77.4519 45.81 77.5248 45.8929 77.6492C45.9043 77.6662 45.9143 77.6858 45.9231 77.7116C46.0387 78.0445 45.5088 78.4368 45.6114 78.5861C45.6856 78.6943 46.0457 78.5494 46.0885 78.6428C46.1287 78.731 45.8296 78.9129 45.8755 79.0181C45.91 79.0975 46.0942 79.0246 46.2103 79.1468C46.2684 79.2075 46.2513 79.2555 46.3125 79.4409C46.3474 79.5457 46.3958 79.6604 46.4334 79.7246C46.6163 80.0349 47.134 80.1483 47.2335 80.0244C47.2611 79.9899 47.2375 79.9607 47.2659 79.8446C47.2659 79.8446 47.292 79.7368 47.3671 79.6124C47.4741 79.4344 47.7325 79.3074 47.9936 79.1198C48.4764 78.772 48.6078 78.4757 48.6471 78.3757C48.661 78.34 48.6698 78.3133 48.6759 78.2937C48.8016 77.904 48.802 77.3315 48.627 76.9798C48.3332 76.3902 47.671 76.6699 47.1288 76.0856C46.5032 75.4114 46.876 74.4902 46.5364 74.3886C46.1623 74.276 45.3202 75.2788 45.3233 76.2563Z" fill="#26264F"/>
<path d="M45.8013 78.4614C45.931 78.2834 46.1588 78.4505 46.1601 78.6809C46.1614 78.9113 45.9384 79.1509 45.7214 79.1051C45.5049 79.0601 45.6267 78.701 45.8013 78.4614Z" fill="url(#paint59_linear_749_616)"/>
<path d="M50.0784 94.8738C50.0566 94.8738 50.0374 94.8572 50.0352 94.8349C49.8929 93.5542 50.1574 92.6269 50.3906 91.8087C50.4473 91.6092 50.501 91.4212 50.5477 91.2331C50.8048 90.1958 50.9175 89.7956 51.0366 89.3715C51.1139 89.0961 51.1942 88.8116 51.3178 88.3364C51.3239 88.3133 51.3479 88.2993 51.371 88.305C51.3942 88.3111 51.4081 88.3346 51.4025 88.3582C51.2785 88.8343 51.1981 89.1197 51.1209 89.395C51.0017 89.8183 50.8895 90.2181 50.6328 91.254C50.5857 91.4434 50.532 91.6324 50.4748 91.8322C50.2439 92.6426 49.9815 93.5607 50.1221 94.8249C50.1247 94.8489 50.1077 94.8703 50.0837 94.8729C50.0819 94.8738 50.0802 94.8738 50.0784 94.8738Z" fill="#9B305E"/>
<path d="M45.9063 78.0771L45.6055 78.4681C45.6055 78.4681 45.2812 78.9473 45.0922 78.6846C44.9376 78.4703 44.8975 78.4751 44.8879 78.4839C44.8861 78.4856 44.8857 78.4882 44.8853 78.4882C44.8826 78.4873 44.908 78.3813 44.9307 78.2884C44.8508 78.4031 44.7403 78.5895 44.6735 78.8404C44.6085 79.0839 44.5391 79.3448 44.6766 79.5953C44.6844 79.6097 44.8359 79.8763 45.1188 79.9409C45.1188 79.9409 45.2301 79.9662 45.6998 79.8838C45.6998 79.8838 45.1865 79.5111 45.1786 79.4229C45.1572 79.1825 45.4912 79.0525 45.7391 78.5589C45.8343 78.3682 45.881 78.1958 45.9063 78.0771Z" fill="#26264F"/>
</g>
<defs>
<linearGradient id="paint0_linear_749_616" x1="60.2616" y1="6.61928" x2="47.5617" y2="42.7271" gradientUnits="userSpaceOnUse">
<stop stop-color="#AA80F9"/>
<stop offset="0.9964" stop-color="#6165D7"/>
</linearGradient>
<linearGradient id="paint1_linear_749_616" x1="51.6307" y1="47.0481" x2="14.7791" y2="-16.698" gradientUnits="userSpaceOnUse">
<stop stop-color="#FFC444"/>
<stop offset="0.9964" stop-color="#F36F56"/>
</linearGradient>
<linearGradient id="paint2_linear_749_616" x1="20.1494" y1="9.77191" x2="41.9903" y2="45.741" gradientUnits="userSpaceOnUse">
<stop offset="0.00359712" stop-color="#E38DDD"/>
<stop offset="1" stop-color="#9571F6"/>
</linearGradient>
<linearGradient id="paint3_linear_749_616" x1="0.322471" y1="74.2014" x2="35.2054" y2="74.2014" gradientUnits="userSpaceOnUse">
<stop stop-color="#FE3000"/>
<stop offset="1" stop-color="#FB6FBB"/>
</linearGradient>
<linearGradient id="paint4_linear_749_616" x1="70.8639" y1="52.4397" x2="107.896" y2="147.86" gradientUnits="userSpaceOnUse">
<stop stop-color="#FB6FBB"/>
<stop offset="1" stop-color="#FE3000"/>
</linearGradient>
<linearGradient id="paint5_linear_749_616" x1="25.5083" y1="74.1427" x2="69.5728" y2="74.4098" gradientUnits="userSpaceOnUse">
<stop stop-color="#FF9085"/>
<stop offset="1" stop-color="#FB6FBB"/>
</linearGradient>
<linearGradient id="paint6_linear_749_616" x1="52.5166" y1="33.3905" x2="86.0631" y2="56.0011" gradientUnits="userSpaceOnUse">
<stop stop-color="#FE3000"/>
<stop offset="0.9964" stop-color="#FE3000"/>
</linearGradient>
<linearGradient id="paint7_linear_749_616" x1="24.4558" y1="75.0237" x2="58.0024" y2="97.6344" gradientUnits="userSpaceOnUse">
<stop stop-color="#FFC444"/>
<stop offset="0.9964" stop-color="#F36F56"/>
</linearGradient>
<linearGradient id="paint8_linear_749_616" x1="76.8272" y1="33.9717" x2="110.494" y2="120.72" gradientUnits="userSpaceOnUse">
<stop stop-color="#FFC444"/>
<stop offset="0.9964" stop-color="#F36F56"/>
</linearGradient>
<linearGradient id="paint9_linear_749_616" x1="69.3179" y1="13.0752" x2="69.3179" y2="99.6075" gradientUnits="userSpaceOnUse">
<stop stop-color="#FFC444"/>
<stop offset="1" stop-color="white" stop-opacity="0"/>
</linearGradient>
<linearGradient id="paint10_linear_749_616" x1="89.9108" y1="100.509" x2="68.0425" y2="133.714" gradientUnits="userSpaceOnUse">
<stop stop-color="#FFC444"/>
<stop offset="0.9964" stop-color="#F36F56"/>
</linearGradient>
<linearGradient id="paint11_linear_749_616" x1="67.174" y1="35.5997" x2="82.6087" y2="88.1432" gradientUnits="userSpaceOnUse">
<stop stop-color="#AA80F9"/>
<stop offset="0.9964" stop-color="#6165D7"/>
</linearGradient>
<linearGradient id="paint12_linear_749_616" x1="78.2889" y1="31.0451" x2="106.056" y2="125.571" gradientUnits="userSpaceOnUse">
<stop stop-color="#AA80F9"/>
<stop offset="0.9964" stop-color="#6165D7"/>
</linearGradient>
<linearGradient id="paint13_linear_749_616" x1="70.2584" y1="34.6937" x2="85.693" y2="87.2372" gradientUnits="userSpaceOnUse">
<stop stop-color="#AA80F9"/>
<stop offset="0.9964" stop-color="#6165D7"/>
</linearGradient>
<linearGradient id="paint14_linear_749_616" x1="73.3427" y1="33.7877" x2="88.7774" y2="86.3312" gradientUnits="userSpaceOnUse">
<stop stop-color="#AA80F9"/>
<stop offset="0.9964" stop-color="#6165D7"/>
</linearGradient>
<linearGradient id="paint15_linear_749_616" x1="76.4267" y1="32.8817" x2="91.8613" y2="85.4252" gradientUnits="userSpaceOnUse">
<stop stop-color="#AA80F9"/>
<stop offset="0.9964" stop-color="#6165D7"/>
</linearGradient>
<linearGradient id="paint16_linear_749_616" x1="88.7618" y1="29.2583" x2="104.196" y2="81.8018" gradientUnits="userSpaceOnUse">
<stop stop-color="#AA80F9"/>
<stop offset="0.9964" stop-color="#6165D7"/>
</linearGradient>
<linearGradient id="paint17_linear_749_616" x1="85.6784" y1="30.1643" x2="101.113" y2="82.7077" gradientUnits="userSpaceOnUse">
<stop stop-color="#AA80F9"/>
<stop offset="0.9964" stop-color="#6165D7"/>
</linearGradient>
<linearGradient id="paint18_linear_749_616" x1="82.594" y1="31.0702" x2="98.0287" y2="83.6137" gradientUnits="userSpaceOnUse">
<stop stop-color="#AA80F9"/>
<stop offset="0.9964" stop-color="#6165D7"/>
</linearGradient>
<linearGradient id="paint19_linear_749_616" x1="79.5097" y1="31.9762" x2="94.9443" y2="84.5198" gradientUnits="userSpaceOnUse">
<stop stop-color="#AA80F9"/>
<stop offset="0.9964" stop-color="#6165D7"/>
</linearGradient>
<linearGradient id="paint20_linear_749_616" x1="75.9719" y1="33.0147" x2="91.4065" y2="85.5582" gradientUnits="userSpaceOnUse">
<stop stop-color="#AA80F9"/>
<stop offset="0.9964" stop-color="#6165D7"/>
</linearGradient>
<linearGradient id="paint21_linear_749_616" x1="25.9534" y1="52.4556" x2="31.8462" y2="67.6394" gradientUnits="userSpaceOnUse">
<stop stop-color="#AA80F9"/>
<stop offset="0.9964" stop-color="#6165D7"/>
</linearGradient>
<linearGradient id="paint22_linear_749_616" x1="28.2434" y1="64.1027" x2="24.4157" y2="69.9147" gradientUnits="userSpaceOnUse">
<stop stop-color="#AA80F9"/>
<stop offset="0.9964" stop-color="#6165D7"/>
</linearGradient>
<linearGradient id="paint23_linear_749_616" x1="24.473" y1="53.0106" x2="26.9612" y2="61.4812" gradientUnits="userSpaceOnUse">
<stop stop-color="#AA80F9"/>
<stop offset="0.9964" stop-color="#6165D7"/>
</linearGradient>
<linearGradient id="paint24_linear_749_616" x1="26.2649" y1="52.2765" x2="30.7413" y2="67.5153" gradientUnits="userSpaceOnUse">
<stop stop-color="#AA80F9"/>
<stop offset="0.9964" stop-color="#6165D7"/>
</linearGradient>
<linearGradient id="paint25_linear_749_616" x1="24.9708" y1="52.8646" x2="27.459" y2="61.3352" gradientUnits="userSpaceOnUse">
<stop stop-color="#AA80F9"/>
<stop offset="0.9964" stop-color="#6165D7"/>
</linearGradient>
<linearGradient id="paint26_linear_749_616" x1="25.468" y1="52.7185" x2="27.9563" y2="61.1891" gradientUnits="userSpaceOnUse">
<stop stop-color="#AA80F9"/>
<stop offset="0.9964" stop-color="#6165D7"/>
</linearGradient>
<linearGradient id="paint27_linear_749_616" x1="25.9654" y1="52.5724" x2="28.4536" y2="61.043" gradientUnits="userSpaceOnUse">
<stop stop-color="#AA80F9"/>
<stop offset="0.9964" stop-color="#6165D7"/>
</linearGradient>
<linearGradient id="paint28_linear_749_616" x1="27.9531" y1="51.9883" x2="30.4413" y2="60.4589" gradientUnits="userSpaceOnUse">
<stop stop-color="#AA80F9"/>
<stop offset="0.9964" stop-color="#6165D7"/>
</linearGradient>
<linearGradient id="paint29_linear_749_616" x1="27.4558" y1="52.1344" x2="29.944" y2="60.605" gradientUnits="userSpaceOnUse">
<stop stop-color="#AA80F9"/>
<stop offset="0.9964" stop-color="#6165D7"/>
</linearGradient>
<linearGradient id="paint30_linear_749_616" x1="26.9586" y1="52.2804" x2="29.4468" y2="60.751" gradientUnits="userSpaceOnUse">
<stop stop-color="#AA80F9"/>
<stop offset="0.9964" stop-color="#6165D7"/>
</linearGradient>
<linearGradient id="paint31_linear_749_616" x1="26.4617" y1="52.4265" x2="28.95" y2="60.8971" gradientUnits="userSpaceOnUse">
<stop stop-color="#AA80F9"/>
<stop offset="0.9964" stop-color="#6165D7"/>
</linearGradient>
<linearGradient id="paint32_linear_749_616" x1="25.8913" y1="52.594" x2="28.3795" y2="61.0648" gradientUnits="userSpaceOnUse">
<stop stop-color="#AA80F9"/>
<stop offset="0.9964" stop-color="#6165D7"/>
</linearGradient>
<linearGradient id="paint33_linear_749_616" x1="23.8421" y1="53.2746" x2="29.7348" y2="68.4585" gradientUnits="userSpaceOnUse">
<stop stop-color="#AA80F9"/>
<stop offset="0.9964" stop-color="#6165D7"/>
</linearGradient>
<linearGradient id="paint34_linear_749_616" x1="13.1037" y1="84.65" x2="18.9964" y2="99.8338" gradientUnits="userSpaceOnUse">
<stop stop-color="#AA80F9"/>
<stop offset="0.9964" stop-color="#6165D7"/>
</linearGradient>
<linearGradient id="paint35_linear_749_616" x1="15.3931" y1="96.2971" x2="11.5654" y2="102.109" gradientUnits="userSpaceOnUse">
<stop stop-color="#AA80F9"/>
<stop offset="0.9964" stop-color="#6165D7"/>
</linearGradient>
<linearGradient id="paint36_linear_749_616" x1="11.6232" y1="85.205" x2="14.1114" y2="93.6756" gradientUnits="userSpaceOnUse">
<stop stop-color="#AA80F9"/>
<stop offset="0.9964" stop-color="#6165D7"/>
</linearGradient>
<linearGradient id="paint37_linear_749_616" x1="13.4145" y1="84.4709" x2="17.891" y2="99.7097" gradientUnits="userSpaceOnUse">
<stop stop-color="#AA80F9"/>
<stop offset="0.9964" stop-color="#6165D7"/>
</linearGradient>
<linearGradient id="paint38_linear_749_616" x1="12.12" y1="85.059" x2="14.6082" y2="93.5295" gradientUnits="userSpaceOnUse">
<stop stop-color="#AA80F9"/>
<stop offset="0.9964" stop-color="#6165D7"/>
</linearGradient>
<linearGradient id="paint39_linear_749_616" x1="12.6178" y1="84.9129" x2="15.106" y2="93.3835" gradientUnits="userSpaceOnUse">
<stop stop-color="#AA80F9"/>
<stop offset="0.9964" stop-color="#6165D7"/>
</linearGradient>
<linearGradient id="paint40_linear_749_616" x1="13.115" y1="84.7668" x2="15.6033" y2="93.2374" gradientUnits="userSpaceOnUse">
<stop stop-color="#AA80F9"/>
<stop offset="0.9964" stop-color="#6165D7"/>
</linearGradient>
<linearGradient id="paint41_linear_749_616" x1="15.1028" y1="84.1827" x2="17.591" y2="92.6533" gradientUnits="userSpaceOnUse">
<stop stop-color="#AA80F9"/>
<stop offset="0.9964" stop-color="#6165D7"/>
</linearGradient>
<linearGradient id="paint42_linear_749_616" x1="14.6056" y1="84.3288" x2="17.0938" y2="92.7993" gradientUnits="userSpaceOnUse">
<stop stop-color="#AA80F9"/>
<stop offset="0.9964" stop-color="#6165D7"/>
</linearGradient>
<linearGradient id="paint43_linear_749_616" x1="14.1083" y1="84.4748" x2="16.5965" y2="92.9454" gradientUnits="userSpaceOnUse">
<stop stop-color="#AA80F9"/>
<stop offset="0.9964" stop-color="#6165D7"/>
</linearGradient>
<linearGradient id="paint44_linear_749_616" x1="13.6115" y1="84.6209" x2="16.0997" y2="93.0915" gradientUnits="userSpaceOnUse">
<stop stop-color="#AA80F9"/>
<stop offset="0.9964" stop-color="#6165D7"/>
</linearGradient>
<linearGradient id="paint45_linear_749_616" x1="13.041" y1="84.7884" x2="15.5293" y2="93.2592" gradientUnits="userSpaceOnUse">
<stop stop-color="#AA80F9"/>
<stop offset="0.9964" stop-color="#6165D7"/>
</linearGradient>
<linearGradient id="paint46_linear_749_616" x1="10.9918" y1="85.469" x2="16.8845" y2="100.653" gradientUnits="userSpaceOnUse">
<stop stop-color="#AA80F9"/>
<stop offset="0.9964" stop-color="#6165D7"/>
</linearGradient>
<linearGradient id="paint47_linear_749_616" x1="28.7446" y1="68.7079" x2="31.0375" y2="73.9871" gradientUnits="userSpaceOnUse">
<stop stop-color="#FFC444"/>
<stop offset="0.9964" stop-color="#F36F56"/>
</linearGradient>
<linearGradient id="paint48_linear_749_616" x1="34.6121" y1="72.5002" x2="43.9133" y2="93.9157" gradientUnits="userSpaceOnUse">
<stop stop-color="#AA80F9"/>
<stop offset="0.9964" stop-color="#6165D7"/>
</linearGradient>
<linearGradient id="paint49_linear_749_616" x1="48.5703" y1="94.2543" x2="51.6592" y2="81.8939" gradientUnits="userSpaceOnUse">
<stop stop-color="#AA80F9"/>
<stop offset="0.9964" stop-color="#6165D7"/>
</linearGradient>
<linearGradient id="paint50_linear_749_616" x1="51.5217" y1="122.886" x2="53.1559" y2="123.973" gradientUnits="userSpaceOnUse">
<stop stop-color="#444B8C"/>
<stop offset="0.9964" stop-color="#26264F"/>
</linearGradient>
<linearGradient id="paint51_linear_749_616" x1="53.1029" y1="123.982" x2="52.7455" y2="121.454" gradientUnits="userSpaceOnUse">
<stop stop-color="#FFC444"/>
<stop offset="0.9964" stop-color="#F36F56"/>
</linearGradient>
<linearGradient id="paint52_linear_749_616" x1="51.6443" y1="122.702" x2="53.2784" y2="123.788" gradientUnits="userSpaceOnUse">
<stop stop-color="#444B8C"/>
<stop offset="0.9964" stop-color="#26264F"/>
</linearGradient>
<linearGradient id="paint53_linear_749_616" x1="41.143" y1="123.696" x2="42.6089" y2="125" gradientUnits="userSpaceOnUse">
<stop stop-color="#444B8C"/>
<stop offset="0.9964" stop-color="#26264F"/>
</linearGradient>
<linearGradient id="paint54_linear_749_616" x1="42.5554" y1="125.003" x2="42.5554" y2="122.45" gradientUnits="userSpaceOnUse">
<stop stop-color="#FFC444"/>
<stop offset="0.9964" stop-color="#F36F56"/>
</linearGradient>
<linearGradient id="paint55_linear_749_616" x1="42.4351" y1="126.174" x2="51.9902" y2="87.5812" gradientUnits="userSpaceOnUse">
<stop stop-color="#444B8C"/>
<stop offset="0.9964" stop-color="#26264F"/>
</linearGradient>
<linearGradient id="paint56_linear_749_616" x1="37.2898" y1="70.2624" x2="47.5353" y2="93.852" gradientUnits="userSpaceOnUse">
<stop stop-color="#AA80F9"/>
<stop offset="0.9964" stop-color="#6165D7"/>
</linearGradient>
<linearGradient id="paint57_linear_749_616" x1="41.2906" y1="123.531" x2="42.7565" y2="124.835" gradientUnits="userSpaceOnUse">
<stop stop-color="#444B8C"/>
<stop offset="0.9964" stop-color="#26264F"/>
</linearGradient>
<linearGradient id="paint58_linear_749_616" x1="43.9761" y1="76.1876" x2="48.8509" y2="87.3754" gradientUnits="userSpaceOnUse">
<stop stop-color="#FFC444"/>
<stop offset="0.9964" stop-color="#F36F56"/>
</linearGradient>
<linearGradient id="paint59_linear_749_616" x1="44.5973" y1="75.8531" x2="49.6936" y2="87.5492" gradientUnits="userSpaceOnUse">
<stop stop-color="#FFC444"/>
<stop offset="0.9964" stop-color="#F36F56"/>
</linearGradient>
<clipPath id="clip0_749_616">
<rect width="117" height="126" fill="white"/>
</clipPath>
</defs>
</svg>
